<?xml version="1.0" encoding="utf-8"?>
<!-- Generator: Adobe Illustrator 16.0.4, SVG Export Plug-In . SVG Version: 6.00 Build 0)  -->
<!DOCTYPE svg PUBLIC "-//W3C//DTD SVG 1.1//EN" "http://www.w3.org/Graphics/SVG/1.1/DTD/svg11.dtd">
<svg version="1.1" id="Layer_1" xmlns="http://www.w3.org/2000/svg" xmlns:xlink="http://www.w3.org/1999/xlink" x="0px" y="0px"
	 width="500px" height="500px" viewBox="0 0 500 500" enable-background="new 0 0 500 500" xml:space="preserve">
	<style type="text/css">
		<![CDATA[
			@keyframes circlePulse {
				from { opacity: 0.5 }
				3%   { opacity: 1 }
				33%  { opacity: 1 }
				36%  { opacity: 0.5 }
				to   { opacity: 0.5 }
			}
			circle.circle-1, .circle-2, .circle-3 {
				opacity: 0.5;
				animation: circlePulse 9s linear infinite;
			}
			.circle-1 {
			}
			.circle-2 {
				animation-delay: 3s;
			}
			circle.circle-3 {
				animation-delay: 6s;
			}
		]]>
	</style>
	<g class="circle-website">
		<circle class="circle-1" fill="#E65226" enable-background="new" cx="255.716" cy="156.037" r="139.043"/>
		<path fill="#FFFFFF" d="M317.111,103.663h-122.79c-2.597,0-4.705,2.111-4.705,4.702v87.26c0,2.599,2.108,4.702,4.705,4.702h48.425
			v4.485c0,2.791-10.635,6.062-10.635,8.016c0,1.946,47.209,2.265,47.209,0c0-2.275-10.896-5.313-10.896-8.016v-4.485h48.686
			c2.596,0,4.705-2.104,4.705-4.702v-87.26C321.817,105.776,319.706,103.663,317.111,103.663z M313.979,192.492H197.455V111.5h116.521
			L313.979,192.492L313.979,192.492z"/>
	</g>
	<g class="circle-design">
		<circle class="circle-2" fill="#289982" enable-background="new" cx="358.37" cy="345.076" r="139.043"/>
		<path fill="#FFFFFF" d="M377.899,286.727h-56.082v116.694h86.703v-83.418L377.899,286.727z M403.649,398.553h-76.957V291.6h49.015
			v30.186h27.841l0.103,0.113L403.649,398.553L403.649,398.553z"/>
	</g>
	<g class="circle-logo">
		<circle class="circle-3" fill="#FFCD05" enable-background="new" cx="141.63" cy="345.076" r="139.043"/>
		<path fill="#FFFFFF" d="M205.249,325.312l-43.577-6.504l-19.35-39.591l-19.651,39.438l-43.628,6.166l31.434,30.875l-7.627,43.398
			l39.088-20.351l38.918,20.656l-7.276-43.449L205.249,325.312z M174.228,390.197l-29.166-15.477l-3.104-1.648l-3.125,1.619
			l-29.271,15.254l5.7-32.512l0.617-3.47l-2.516-2.469l-23.549-23.133l32.688-4.611l3.487-0.502l1.563-3.145l14.734-29.549
			l14.485,29.659l1.549,3.168l3.479,0.517l32.642,4.877l-23.729,22.947l-2.524,2.442l0.582,3.469L174.228,390.197z"/>
	</g>
</svg>