<?xml version="1.0" encoding="utf-8"?>
<!-- Generator: Adobe Illustrator 16.0.4, SVG Export Plug-In . SVG Version: 6.00 Build 0)  -->
<!DOCTYPE svg PUBLIC "-//W3C//DTD SVG 1.1//EN" "http://www.w3.org/Graphics/SVG/1.1/DTD/svg11.dtd">
<svg version="1.1" id="Layer_1" xmlns="http://www.w3.org/2000/svg" xmlns:xlink="http://www.w3.org/1999/xlink" x="0px" y="0px"
	 width="1031.811px" height="728.5px" viewBox="0 0 1031.811 728.5" enable-background="new 0 0 1031.811 728.5"
	 xml:space="preserve">
<circle opacity="0.8" fill="#FFCD05" enable-background="new    " cx="407.535" cy="448.877" r="139.043"/>
<circle opacity="0.8" fill="#289982" enable-background="new    " cx="624.275" cy="448.877" r="139.043"/>
<path fill="none" stroke="#221F1F" stroke-linecap="round" stroke-miterlimit="10" d="M315.616,352.509"/>
<path fill="#FFFFFF" d="M471.154,429.113l-43.577-6.504l-19.349-39.59l-19.652,39.438l-43.628,6.166l31.434,30.875l-7.627,43.398
	l39.088-20.35l38.918,20.656l-7.277-43.449L471.154,429.113z M440.133,493.998l-29.166-15.477l-3.105-1.648l-3.125,1.619
	l-29.271,15.254l5.7-32.512l0.617-3.469l-2.516-2.469l-23.548-23.133l32.688-4.611l3.487-0.502l1.564-3.145l14.734-29.549
	l14.486,29.66l1.549,3.168l3.479,0.516l32.642,4.877l-23.729,22.947l-2.524,2.443l0.582,3.469L440.133,493.998z"/>
<path fill="#FFFFFF" d="M643.805,390.527h-56.082v116.695h86.703v-83.418L643.805,390.527z M669.555,502.354h-76.957V395.4h49.014
	v30.186h27.841l0.103,0.113V502.354L669.555,502.354z"/>
<circle opacity="0.8" fill="#E65226" enable-background="new    " cx="521.621" cy="259.838" r="139.043"/>
<path fill="#FFFFFF" d="M583.017,207.464h-122.79c-2.597,0-4.706,2.111-4.706,4.702v87.26c0,2.598,2.109,4.702,4.706,4.702h48.424
	v4.485c0,2.791-10.634,6.062-10.634,8.016c0,1.946,47.209,2.265,47.209,0c0-2.275-10.896-5.314-10.896-8.016v-4.485h48.686
	c2.595,0,4.705-2.104,4.705-4.702v-87.26C587.723,209.577,585.611,207.464,583.017,207.464z M579.884,296.293H463.36v-80.992
	h116.522L579.884,296.293L579.884,296.293z"/>
</svg>
