<svg version="1.1" xmlns="http://www.w3.org/2000/svg" xmlns:xlink="http://www.w3.org/1999/xlink" x="0px" y="0px" width="222.296px" height="222.574px" viewBox="0 0 222.296 222.574" enable-background="new 0 0 222.296 222.574" xml:space="preserve">
	<path fill="#d1d0cf" d="M111.009,0C49.645,0-0.278,49.923-0.278,111.287s49.923,111.287,111.287,111.287s111.287-49.923,111.287-111.287
		S172.373,0,111.009,0z M111.009,210.574c-54.747,0-99.287-44.54-99.287-99.287S56.262,12,111.009,12s99.287,44.54,99.287,99.287
		S165.756,210.574,111.009,210.574z"/>
	<path fill="#d1d0cf" d="M112.154,143.585c-17.428,0-34.103,7.447-45.746,20.431c-2.212,2.467-2.006,6.26,0.461,8.473
		c1.146,1.027,2.577,1.533,4.004,1.533c1.645,0,3.284-0.673,4.469-1.994c9.371-10.449,22.789-16.442,36.812-16.442
		c13.485,0,26.084,5.332,35.477,15.013c2.306,2.378,6.105,2.436,8.484,0.128c2.378-2.307,2.436-6.106,0.128-8.484
		C144.571,150.211,128.914,143.585,112.154,143.585z"/>
	<ellipse fill="#d1d0cf" cx="77.009" cy="94.37" rx="14.353" ry="17.704"/>
	<ellipse fill="#d1d0cf" cx="145.009" cy="94.37" rx="14.352" ry="17.704"/>
</svg>
