<?xml version="1.0" encoding="utf-8"?>
<!DOCTYPE svg PUBLIC "-//W3C//DTD SVG 1.1//EN" "http://www.w3.org/Graphics/SVG/1.1/DTD/svg11.dtd">
<svg version="1.1" id="Layer_1" xmlns="http://www.w3.org/2000/svg" xmlns:xlink="http://www.w3.org/1999/xlink" x="0px" y="0px" width="32px" height="32px" viewBox="0 0 32 32" enable-background="new 0 0 32 32" xml:space="preserve">
<g>
	<path fill="#eff1f4" d="M14.893,8.017V1.641C11.854,2.264,9.113,3.51,6.68,5.375c-2.442,1.871-4.163,4.142-5.165,6.817
		C0.504,14.869,0,18.295,0,22.475v7.963h14.893V13.015h-3.682C11.509,10.929,12.733,9.262,14.893,8.017z"/>
	<path fill="#eff1f4" d="M32.001,7.956V1.562c-3.05,0.625-5.794,1.875-8.237,3.744c-2.446,1.877-4.171,4.157-5.178,6.838
		c-1.015,2.682-1.519,6.116-1.519,10.308v7.984h14.934V12.967H28.31C28.605,10.877,29.834,9.206,32.001,7.956z"/>
</g>
</svg>
