
<svg version="1.1" id="Layer_1" xmlns="http://www.w3.org/2000/svg" xmlns:xlink="http://www.w3.org/1999/xlink" x="0px" y="0px" width="100%" height="auto" viewBox="-18.5 15.5 815 596.5" enable-background="new -18.5 15.5 815 596.5" xml:space="preserve">
	<defs>
		<filter id="Adobe_OpacityMaskFilter" filterUnits="userSpaceOnUse" x="23.868" y="70.515" width="731.488" height="731.49">
			<feColorMatrix  type="matrix" values="1 0 0 0 0  0 1 0 0 0  0 0 1 0 0  0 0 0 1 0"/>
		</filter>
	</defs>
	<g class="lightrays">
	<mask maskUnits="userSpaceOnUse" x="23.868" y="70.515" width="731.488" height="731.49" id="SVGID_1_">
		<g filter="url(#Adobe_OpacityMaskFilter)">
			
				<radialGradient id="SVGID_2_" cx="390.54" cy="175.0791" r="367.5966" gradientTransform="matrix(1 0 0 -1 0 613)" gradientUnits="userSpaceOnUse">
				<stop  offset="0" style="stop-color:#FFFFFF"/>
				<stop  offset="1" style="stop-color:#010101"/>
			</radialGradient>
			<circle fill="url(#SVGID_2_)" cx="390.54" cy="437.921" r="367.596"/>
		</g>
	</mask>
	<g mask="url(#SVGID_1_)">
		<path opacity="0.5" fill="#0E233D" enable-background="new    " d="M419.892,800.761c20.333-1.666,40.196-4.995,59.454-9.852
			l-83.154-315.222L419.892,800.761z"/>
		<path fill="#0E233D" d="M402.593,474.067l76.896,316.807c19.687-4.976,38.739-11.541,57.01-19.562L402.593,474.067z"/>
		<path fill="#0E233D" d="M396.191,396.831l83.154-315.22c-19.256-4.858-39.121-8.187-59.454-9.854L396.191,396.831z"/>
		<path fill="#0E233D" d="M536.634,101.27L408.638,401.106l180.978-271.108C572.857,119.034,555.148,109.407,536.634,101.27z"/>
		<path opacity="0.5" fill="#0E233D" enable-background="new    " d="M408.638,471.415l127.996,299.836
			c18.514-8.137,36.223-17.766,52.981-28.73L408.638,471.415z"/>
		<path opacity="0.5" fill="#0E233D" enable-background="new    " d="M389.613,396.287L419.74,71.746
			c-9.936-0.811-19.981-1.23-30.127-1.23c-10.146,0-20.195,0.421-30.131,1.23L389.613,396.287z"/>
		<path opacity="0.5" fill="#0E233D" enable-background="new    " d="M402.593,398.452L536.499,101.21
			c-18.271-8.021-37.322-14.589-57.01-19.563L402.593,398.452z"/>
		<path opacity="0.5" fill="#0E233D" enable-background="new    " d="M589.737,130.08L414.164,404.716l223.102-237.59
			C622.493,153.525,606.601,141.125,589.737,130.08z"/>
		<path fill="#0E233D" d="M414.164,467.805L589.737,742.44c16.863-11.044,32.756-23.445,47.529-37.046L414.164,467.805z"/>
		<path fill="#0E233D" d="M426.218,420.204l309.386-102.802c-6.582-19.162-14.706-37.61-24.234-55.186L426.218,420.204z"/>
		<path fill="#0E233D" d="M750.436,376.124l-320.987,56.835l325.908,3.227C755.352,415.729,753.67,395.665,750.436,376.124z"/>
		<path fill="#0E233D" d="M419.022,409.187l259.177-197.638c-12.378-15.874-26.038-30.699-40.825-44.323L419.022,409.187z"/>
		<path opacity="0.5" fill="#0E233D" enable-background="new    " d="M423.077,414.397l288.224-152.311
			c-9.627-17.745-20.685-34.6-33.011-50.42L423.077,414.397z"/>
		<path opacity="0.5" fill="#0E233D" enable-background="new    " d="M428.362,426.447l322.05-50.47
			c-3.329-20.078-8.301-39.603-14.759-58.436L428.362,426.447z"/>
		<path fill="#0E233D" d="M370.587,401.106L242.591,101.27c-18.514,8.137-36.224,17.765-52.98,28.729L370.587,401.106z"/>
		<path fill="#0E233D" d="M428.362,446.072l307.291,108.904c6.458-18.831,11.43-38.356,14.759-58.435L428.362,446.072z"/>
		<path opacity="0.5" fill="#0E233D" enable-background="new    " d="M429.448,439.562l320.987,56.833
			c3.234-19.54,4.916-39.605,4.921-60.06L429.448,439.562z"/>
		<path opacity="0.5" fill="#0E233D" enable-background="new    " d="M426.218,452.317l285.151,157.985
			c9.528-17.576,17.652-36.023,24.234-55.187L426.218,452.317z"/>
		<path fill="#0E233D" d="M678.291,660.853c12.325-15.819,23.383-32.676,33.01-50.421L423.077,458.123L678.291,660.853z"/>
		<path opacity="0.5" fill="#0E233D" enable-background="new    " d="M349.776,439.562l-325.907-3.227
			c0.004,20.455,1.688,40.52,4.92,60.061L349.776,439.562z"/>
		<path opacity="0.5" fill="#0E233D" enable-background="new    " d="M353.006,452.317l-309.385,102.8
			c6.583,19.164,14.708,37.609,24.234,55.186L353.006,452.317z"/>
		<path fill="#0E233D" d="M67.854,262.217c-9.526,17.575-17.652,36.022-24.233,55.185l309.385,102.801L67.854,262.217z"/>
		<path fill="#0E233D" d="M356.147,458.123L67.924,610.435c9.628,17.743,20.686,34.599,33.01,50.418L356.147,458.123z"/>
		<path fill="#0E233D" d="M349.776,432.959L28.788,376.125c-3.231,19.541-4.916,39.604-4.92,60.061L349.776,432.959z"/>
		<path opacity="0.5" fill="#0E233D" enable-background="new    " d="M299.735,81.647c-19.686,4.974-38.739,11.541-57.01,19.562
			l133.908,297.243L299.735,81.647z"/>
		<path opacity="0.5" fill="#0E233D" enable-background="new    " d="M100.935,211.667c-12.325,15.82-23.382,32.675-33.01,50.421
			l288.223,152.31L100.935,211.667z"/>
		<path fill="#0E233D" d="M389.613,476.233l-30.131,324.541c9.937,0.811,19.984,1.23,30.131,1.23c10.146,0,20.191-0.42,30.127-1.23
			L389.613,476.233z"/>
		<path opacity="0.5" fill="#0E233D" enable-background="new    " d="M419.022,463.333l218.354,241.959
			c14.785-13.621,28.444-28.448,40.822-44.321L419.022,463.333z"/>
		<path opacity="0.5" fill="#0E233D" enable-background="new    " d="M360.204,463.333L101.026,660.971
			c12.378,15.874,26.038,30.7,40.823,44.322L360.204,463.333z"/>
		<path fill="#0E233D" d="M350.863,446.072l-322.051,50.47c3.331,20.078,8.301,39.603,14.761,58.437L350.863,446.072z"/>
		<path fill="#0E233D" d="M376.633,474.067L242.726,771.311c18.271,8.02,37.324,14.587,57.01,19.562L376.633,474.067z"/>
		<path opacity="0.5" fill="#0E233D" enable-background="new    " d="M370.587,471.415L189.61,742.52
			c16.756,10.966,34.467,20.595,52.98,28.732L370.587,471.415z"/>
		<path fill="#0E233D" d="M189.487,742.44L365.06,467.805l-223.1,237.59C156.732,718.995,172.624,731.396,189.487,742.44z"/>
		<path opacity="0.5" fill="#0E233D" enable-background="new    " d="M365.06,404.716L189.486,130.08
			c-16.863,11.044-32.755,23.446-47.528,37.046L365.06,404.716z"/>
		<path fill="#0E233D" d="M360.204,409.187l-218.354-241.96c-14.785,13.624-28.445,28.45-40.823,44.324L360.204,409.187z"/>
		<path opacity="0.5" fill="#0E233D" enable-background="new    " d="M350.863,426.447L43.573,317.542
			c-6.46,18.833-11.431,38.359-14.76,58.436L350.863,426.447z"/>
		<path opacity="0.5" fill="#0E233D" enable-background="new    " d="M383.033,475.688l-83.154,315.222
			c19.255,4.856,39.119,8.185,59.455,9.852L383.033,475.688z"/>
		<path fill="#0E233D" d="M359.333,71.758c-20.335,1.666-40.199,4.995-59.454,9.853l83.154,315.22L359.333,71.758z"/>
	</g>
	</g>
	<image x="0" y="0" width="653" height="964" xlink:href="<?php echo get_template_directory_uri(); ?>/library/images/lady.png">
	</image>
</svg>