<svg version="1.1" id="Layer_1" xmlns="http://www.w3.org/2000/svg" xmlns:xlink="http://www.w3.org/1999/xlink" x="0px" y="0px"
	 viewBox="0 0 423 204" enable-background="new 0 0 423 204" role="img" aria-labelledby="img-title">
	<title id="img-title">Websites and branding with impact!</title>
<g>
	<path fill="#FFFFFF" d="M30.916,101.971l4.464-50.725l1.088-4.045c0.105-0.429-0.01-0.661-0.416-0.604l-7.471,1.05
		c-0.405,0.057-0.615,0.335-0.396,0.718l0.426,1.265l-2.229,31.282l-4.233-30.125l0.352-1.623c0.105-0.429-0.01-0.661-0.416-0.604
		l-7.633,1.073c-0.406,0.057-0.615,0.334-0.396,0.718l0.542,1.497l-2.263,31.039L8.067,52.517l0.305-1.368
		c0.105-0.429-0.01-0.661-0.416-0.604l-7.471,1.05c-0.406,0.058-0.616,0.335-0.396,0.719l1.35,3.702l7.797,49.002l-0.539,2.062
		c-0.104,0.43,0.092,0.65,0.498,0.594l7.389-1.039c0.487-0.068,0.616-0.335,0.478-0.729l-0.253-0.627l2.299-31.955l4.359,31.02
		l-0.152,0.684c-0.105,0.429,0.091,0.649,0.497,0.593l7.471-1.05c0.406-0.058,0.534-0.323,0.396-0.719L30.916,101.971z"/>
	<path fill="#FFFFFF" d="M40.462,55.361l1.566,45.298l-0.463,1.883c-0.163,0.386,0.009,0.581,0.365,0.53l17.398-2.445
		c0.357-0.05,0.479-0.213,0.572-0.589l0.409-5.366c0.103-0.305-0.141-0.489-0.427-0.449l-11.837,1.664l-0.524-15.632l3.851-0.541
		l1.792,0.33c0.376,0.093,0.57-0.08,0.592-0.447l-0.28-6.65c0.021-0.366-0.213-0.479-0.55-0.286l-1.773,0.831l-3.851,0.542
		l-0.524-15.633l11.837-1.664c0.285-0.04,0.469-0.284,0.357-0.559l-0.722-5.135c-0.192-0.336-0.284-0.468-0.641-0.418l-17.398,2.445
		c-0.356,0.05-0.54,0.294-0.348,0.63L40.462,55.361z"/>
	<path fill="#FFFFFF" d="M61.865,52.353l1.566,45.299l-0.463,1.883c-0.163,0.387,0.01,0.581,0.365,0.53l15.26-2.145
		c0.285-0.04,0.418-0.131,0.602-0.375l2.431-2.887c0.184-0.244,0.306-0.407,0.266-0.691L81.24,75.879
		c0.032-0.296-0.06-0.428-0.304-0.612l-2.958-2.42l2.747-3.222c0.255-0.254,0.307-0.406,0.267-0.692l-0.57-18.025
		c-0.04-0.285-0.132-0.418-0.305-0.612l-2.632-2.175c-0.173-0.194-0.325-0.245-0.61-0.205l-15.26,2.145
		c-0.356,0.05-0.54,0.294-0.348,0.63L61.865,52.353z M75.654,92.007l-6.133,0.862l-0.524-15.633l6.133-0.862L75.654,92.007z
		 M74.386,54.52l0.524,15.633l-6.133,0.862l-0.524-15.633L74.386,54.52z"/>
	<path fill="#FFFFFF" d="M86.208,71.4c-0.031,0.295,0.061,0.428,0.304,0.612l2.632,2.175c0.245,0.184,0.397,0.234,0.683,0.194
		l8.842-1.243l0.524,15.633l-6.132,0.862l-0.114-3.911l0.474-1.812c0.164-0.386-0.01-0.58-0.366-0.53l-6.56,0.922
		c-0.356,0.05-0.469,0.285-0.419,0.641l0.668,1.651l0.209,6.661c0.04,0.285,0.06,0.427,0.304,0.612l2.633,2.175
		c0.244,0.184,0.396,0.235,0.682,0.195l11.623-1.633c0.285-0.04,0.418-0.132,0.602-0.375l2.431-2.886
		c0.184-0.245,0.306-0.407,0.266-0.692l-0.715-21.132c-0.041-0.285-0.132-0.418-0.305-0.612l-2.633-2.175
		c-0.172-0.194-0.325-0.245-0.61-0.205l-8.913,1.253L91.72,52.156l6.132-0.862l0.186,3.9l-0.544,1.822
		c-0.021,0.367,0.08,0.57,0.437,0.52l6.56-0.922c0.357-0.05,0.541-0.293,0.348-0.63l-0.597-1.662l-0.219-6.731
		c-0.04-0.286-0.132-0.418-0.305-0.612l-2.632-2.175c-0.173-0.193-0.325-0.245-0.61-0.205l-11.623,1.634
		c-0.285,0.04-0.418,0.131-0.673,0.385l-2.431,2.886c-0.255,0.254-0.306,0.407-0.266,0.692L86.208,71.4z"/>
	<path fill="#FFFFFF" d="M109.637,45.712l1.567,45.298l-0.473,1.812c-0.164,0.387,0.009,0.581,0.365,0.53l6.56-0.922
		c0.357-0.05,0.47-0.284,0.349-0.63l-0.669-1.651L115.77,44.85l0.533-1.893c0.093-0.376-0.009-0.581-0.365-0.53l-6.56,0.922
		c-0.356,0.05-0.541,0.294-0.349,0.63L109.637,45.712z"/>
	<path fill="#FFFFFF" d="M119.212,48.293l5.704-0.802l1.454,41.388l-0.473,1.812c-0.164,0.387,0.009,0.581,0.365,0.53l6.561-0.922
		c0.356-0.05,0.469-0.284,0.348-0.63l-0.668-1.651l-1.454-41.388l5.633-0.792c0.285-0.04,0.541-0.294,0.43-0.569l-0.731-5.206
		c-0.193-0.336-0.284-0.469-0.641-0.418l-15.901,2.235c-0.356,0.05-0.551,0.223-0.571,0.588l-0.481,5.376
		C118.754,48.139,118.927,48.333,119.212,48.293z"/>
	<path fill="#FFFFFF" d="M159.23,80.262l-11.837,1.663l-0.524-15.632l3.851-0.541l1.791,0.33c0.377,0.093,0.57-0.08,0.592-0.447
		l-0.28-6.65c0.021-0.366-0.213-0.479-0.549-0.286l-1.774,0.831l-3.851,0.541l-0.524-15.633l11.837-1.664
		c0.285-0.04,0.469-0.284,0.357-0.559l-0.722-5.134c-0.192-0.336-0.283-0.469-0.64-0.418l-17.399,2.445
		c-0.356,0.05-0.539,0.294-0.348,0.63l0.598,1.661l1.566,45.298l-0.462,1.883c-0.164,0.386,0.009,0.58,0.365,0.53l17.398-2.445
		c0.356-0.05,0.479-0.213,0.572-0.589l0.409-5.366C159.759,80.406,159.516,80.222,159.23,80.262z"/>
	<path fill="#FFFFFF" d="M180.28,58.907c-0.04-0.285-0.132-0.418-0.304-0.612l-2.633-2.175c-0.173-0.194-0.325-0.245-0.611-0.205
		l-8.912,1.252l-0.597-15.623l6.133-0.861l0.185,3.9l-0.544,1.822c-0.021,0.367,0.08,0.57,0.437,0.52l6.56-0.922
		c0.357-0.05,0.541-0.293,0.349-0.63l-0.597-1.661l-0.22-6.731c-0.04-0.285-0.131-0.418-0.304-0.612l-2.633-2.175
		c-0.173-0.194-0.325-0.245-0.61-0.205l-11.623,1.633c-0.285,0.04-0.418,0.131-0.673,0.386l-2.43,2.886
		c-0.256,0.254-0.307,0.406-0.267,0.692l0.726,21.203c-0.031,0.295,0.061,0.428,0.304,0.611l2.633,2.176
		c0.244,0.184,0.396,0.234,0.682,0.194l8.842-1.243l0.524,15.633l-6.131,0.862l-0.114-3.911l0.473-1.812
		c0.164-0.386-0.009-0.58-0.366-0.53l-6.56,0.922c-0.356,0.05-0.469,0.284-0.419,0.64l0.669,1.651l0.208,6.661
		c0.04,0.284,0.061,0.427,0.305,0.611l2.632,2.175c0.245,0.184,0.397,0.235,0.683,0.195l11.622-1.633
		c0.285-0.04,0.418-0.131,0.602-0.375l2.431-2.887c0.184-0.244,0.307-0.407,0.267-0.692L180.28,58.907z"/>
	<path fill="#FFFFFF" d="M218.938,77.905l2.42-2.958c0.256-0.253,0.308-0.406,0.268-0.691l-0.62-18.382l0.784-0.11l1.72,0.34
		c0.377,0.092,0.57-0.081,0.592-0.447l-0.28-6.65c0.021-0.367-0.212-0.479-0.549-0.286l-1.702,0.821l-13.121,1.844l-0.586-15.551
		l6.204-0.872l0.185,3.9l-0.544,1.821c-0.093,0.377,0.009,0.581,0.365,0.53l6.561-0.922c0.355-0.05,0.54-0.293,0.348-0.63
		L220.385,38l-0.28-6.65c0.03-0.295-0.061-0.428-0.305-0.612l-2.571-2.256c-0.173-0.194-0.325-0.245-0.61-0.205l-11.623,1.633
		c-0.285,0.04-0.418,0.131-0.673,0.385l-2.42,2.958c-0.185,0.244-0.235,0.396-0.267,0.691l0.631,17.944
		c0.04,0.286,0.132,0.418,0.305,0.612l2.887,2.43l-2.676,3.212c-0.184,0.244-0.235,0.396-0.266,0.691l0.641,18.016
		c0.04,0.286,0.132,0.418,0.305,0.611l2.57,2.257c0.245,0.184,0.397,0.235,0.682,0.195l11.623-1.633
		C218.623,78.241,218.756,78.149,218.938,77.905z M209.194,73.24l-0.524-15.632l6.203-0.872l0.524,15.632L209.194,73.24z"/>
	<path fill="#FFFFFF" d="M244.694,20.007l1.784,51.586l-0.527,2.144c-0.187,0.44,0.01,0.661,0.416,0.604l17.378-2.442
		c0.324-0.046,0.476-0.149,0.686-0.428l2.768-3.287c0.209-0.277,0.349-0.463,0.303-0.788L266.76,46.8
		c0.035-0.336-0.069-0.487-0.347-0.697l-3.368-2.756l3.128-3.669c0.291-0.29,0.349-0.463,0.304-0.788l-0.649-20.528
		c-0.046-0.325-0.149-0.476-0.347-0.697l-2.998-2.477c-0.196-0.221-0.37-0.28-0.695-0.234l-17.377,2.442
		c-0.406,0.057-0.616,0.335-0.396,0.718L244.694,20.007z M260.397,65.166l-6.983,0.981l-0.598-17.802l6.984-0.981L260.397,65.166z
		 M258.952,22.475l0.598,17.802l-6.983,0.981l-0.598-17.802L258.952,22.475z"/>
	<path fill="#FFFFFF" d="M292.157,64.707l-3.3-18.297l2.677-3.212c0.184-0.243,0.234-0.396,0.266-0.691l-0.726-21.203
		c-0.04-0.285-0.131-0.418-0.305-0.612l-2.632-2.175c-0.173-0.193-0.325-0.245-0.61-0.205l-15.259,2.145
		c-0.357,0.05-0.541,0.294-0.349,0.63l0.607,1.732l1.566,45.299l-0.473,1.812c-0.163,0.387,0.009,0.581,0.365,0.53l6.561-0.922
		c0.356-0.05,0.47-0.284,0.348-0.63l-0.668-1.651l-0.638-19.543l3.065-0.431l3.531,19.428l-0.442,1.517
		c-0.163,0.387,0.009,0.581,0.438,0.52l6.488-0.912c0.356-0.05,0.47-0.284,0.348-0.63L292.157,64.707z M279.368,41.491
		l-0.596-15.623l6.204-0.872l0.595,15.623L279.368,41.491z"/>
	<path fill="#FFFFFF" d="M295.903,67.38l6.561-0.922c0.356-0.05,0.469-0.284,0.348-0.63l-0.485-1.386l0.615-10.63l3.779-0.531
		l1.453,10.339l-0.514,1.526c-0.163,0.387,0.01,0.581,0.437,0.52l6.489-0.912c0.355-0.05,0.469-0.284,0.348-0.63l-0.952-2.63
		l-7.149-44.15l0.339-1.211c0.092-0.376-0.008-0.58-0.365-0.53l-6.561,0.922c-0.355,0.05-0.541,0.294-0.348,0.631l0.374,1.11
		l-3.974,45.714l-0.76,2.87C295.374,67.236,295.548,67.43,295.903,67.38z M304.146,33.937l1.702,13.14l-2.567,0.361L304.146,33.937z
		"/>
	<path fill="#FFFFFF" d="M316.824,16.594l1.566,45.298l-0.472,1.812c-0.164,0.387,0.008,0.581,0.365,0.53l6.561-0.922
		c0.355-0.05,0.469-0.284,0.348-0.63l-0.668-1.651l-0.82-24.971l7.069,25.983c0.04,0.285,0.203,0.408,0.488,0.368l5.919-0.832
		c0.355-0.05,0.469-0.284,0.348-0.631l-0.668-1.651l-1.567-45.299l0.533-1.893c0.093-0.376-0.009-0.58-0.365-0.53l-6.56,0.922
		c-0.357,0.05-0.541,0.294-0.349,0.631l0.607,1.732l0.881,24.89l-7.069-25.983c-0.111-0.275-0.203-0.408-0.488-0.368l-5.918,0.832
		c-0.357,0.05-0.541,0.294-0.349,0.63L316.824,16.594z"/>
	<path fill="#FFFFFF" d="M341.618,13.037l1.566,45.298l-0.463,1.883c-0.092,0.376,0.08,0.57,0.438,0.52l15.259-2.145
		c0.285-0.04,0.419-0.131,0.603-0.375l2.43-2.886c0.185-0.245,0.306-0.407,0.266-0.692l-1.47-43.058
		c-0.04-0.286-0.131-0.418-0.305-0.612l-2.632-2.175c-0.173-0.194-0.325-0.245-0.61-0.205l-15.26,2.145
		c-0.356,0.05-0.54,0.294-0.419,0.64L341.618,13.037z M354.139,15.204l1.269,37.488l-6.133,0.862l-1.269-37.488L354.139,15.204z"/>
	<path fill="#FFFFFF" d="M366.104,9.668l1.566,45.299l-0.473,1.812c-0.164,0.386,0.009,0.581,0.365,0.53l6.561-0.922
		c0.356-0.05,0.469-0.284,0.348-0.63l-0.668-1.651l-1.567-45.299l0.533-1.893c0.094-0.376-0.009-0.58-0.365-0.53l-6.56,0.922
		c-0.357,0.05-0.54,0.294-0.349,0.63L366.104,9.668z"/>
	<path fill="#FFFFFF" d="M398.403,50.648L396.835,5.35l0.533-1.893c0.094-0.376-0.008-0.58-0.365-0.53l-6.56,0.922
		c-0.356,0.05-0.54,0.294-0.348,0.631l0.607,1.732l0.881,24.89l-7.069-25.984c-0.112-0.275-0.203-0.408-0.488-0.368l-5.919,0.832
		c-0.356,0.05-0.54,0.294-0.348,0.63l0.607,1.733l1.567,45.298l-0.473,1.812c-0.164,0.387,0.008,0.581,0.365,0.53l6.561-0.922
		c0.355-0.05,0.469-0.284,0.348-0.63l-0.668-1.651l-0.82-24.972l7.069,25.984c0.04,0.285,0.203,0.408,0.488,0.368l5.919-0.832
		c0.355-0.05,0.469-0.284,0.347-0.63L398.403,50.648z"/>
	<path fill="#FFFFFF" d="M422.753,46.062l-0.658-19.177l0.534-1.893c0.092-0.377-0.081-0.571-0.438-0.521l-8.842,1.243
		c-0.357,0.05-0.469,0.284-0.347,0.631l1.301,5.125c0.04,0.286,0.203,0.408,0.488,0.368l1.283-0.18l0.44,12.445l-6.132,0.861
		l-1.27-37.487l6.132-0.862l0.114,3.911l-0.544,1.821c-0.094,0.377,0.08,0.571,0.436,0.521l6.561-0.922
		c0.356-0.05,0.469-0.285,0.276-0.621l-0.597-1.661l-0.209-6.66c-0.04-0.286-0.131-0.418-0.305-0.612l-2.632-2.175
		c-0.174-0.194-0.325-0.245-0.61-0.205l-11.623,1.634c-0.285,0.04-0.418,0.131-0.673,0.385l-2.359,2.877
		c-0.255,0.254-0.306,0.406-0.266,0.692l1.47,43.058c0.04,0.285,0.061,0.427,0.305,0.611l2.562,2.185
		c0.243,0.184,0.396,0.235,0.681,0.195l11.623-1.634c0.285-0.04,0.419-0.131,0.603-0.375l2.43-2.886
		C422.672,46.51,422.793,46.348,422.753,46.062z"/>
	<path fill="#FFFFFF" d="M43.143,188.939c-0.128,0.523,0.111,0.792,0.607,0.723l9.012-1.267c0.594-0.083,0.751-0.408,0.582-0.89
		l-0.31-0.765l2.805-38.972l5.316,37.83l-0.186,0.835c-0.129,0.522,0.111,0.792,0.606,0.722l9.11-1.279
		c0.495-0.07,0.651-0.395,0.482-0.876l-0.928-2.294l5.458-61.764l1.327-4.934c0.128-0.523-0.013-0.806-0.508-0.736l-9.11,1.28
		c-0.495,0.069-0.751,0.409-0.483,0.876l0.52,1.543l-2.731,38.053l-5.149-36.643l0.429-1.979c0.128-0.523-0.012-0.807-0.507-0.736
		l-9.31,1.308c-0.495,0.069-0.751,0.408-0.483,0.876l0.661,1.826l-2.772,37.755l-5.191-36.938l0.371-1.668
		c0.129-0.523-0.013-0.807-0.508-0.737l-9.111,1.28c-0.495,0.07-0.75,0.408-0.482,0.876l1.645,4.516l9.496,59.663L43.143,188.939z"
		/>
	<path fill="#FFFFFF" d="M83.885,184.021l9.111-1.28c0.495-0.069,0.651-0.395,0.482-0.876l-0.928-2.293l-2.176-62.913l0.741-2.63
		c0.128-0.522-0.013-0.806-0.508-0.736l-9.111,1.281c-0.495,0.069-0.75,0.408-0.482,0.875l0.843,2.406l2.177,62.914l-0.656,2.516
		C83.15,183.822,83.39,184.092,83.885,184.021z"/>
	<path fill="#FFFFFF" d="M95.23,113.351l-0.668,7.466c-0.043,0.41,0.197,0.68,0.593,0.624l7.923-1.113l2.019,57.481l-0.656,2.517
		c-0.227,0.536,0.013,0.806,0.508,0.736l9.111-1.28c0.495-0.07,0.651-0.395,0.482-0.876l-0.928-2.293l-2.02-57.482l7.824-1.1
		c0.396-0.056,0.75-0.408,0.596-0.79l-1.016-7.23c-0.269-0.467-0.396-0.65-0.891-0.581l-22.084,3.104
		C95.529,112.602,95.26,112.842,95.23,113.351z"/>
	<path fill="#FFFFFF" d="M132.291,110.768l0.741-2.629c0.129-0.522-0.013-0.806-0.508-0.736l-9.11,1.281
		c-0.495,0.068-0.751,0.408-0.482,0.875l0.843,2.406l2.176,62.914l-0.656,2.516c-0.227,0.537,0.013,0.806,0.508,0.736l9.111-1.281
		c0.495-0.068,0.651-0.394,0.482-0.875l-0.928-2.293l-0.886-27.143l8.517-1.197l0.886,27.143L142.328,175
		c-0.129,0.523,0.111,0.793,0.606,0.723l9.111-1.28c0.495-0.069,0.651-0.394,0.482-0.876l-0.928-2.293l-2.177-62.913l0.741-2.63
		c0.129-0.522-0.012-0.805-0.507-0.736l-9.111,1.281c-0.495,0.069-0.751,0.408-0.582,0.889l0.844,2.407l0.984,27.129l-8.517,1.196
		L132.291,110.768z"/>
	<path fill="#FFFFFF" d="M201.721,177.722l-2.611-75.489l0.89-3.154c0.154-0.627-0.015-0.967-0.609-0.883l-10.932,1.536
		c-0.594,0.083-0.9,0.49-0.579,1.051l1.012,2.887l2.611,75.489l-0.787,3.018c-0.273,0.645,0.015,0.968,0.608,0.885l10.932-1.537
		c0.595-0.083,0.782-0.473,0.58-1.051L201.721,177.722z"/>
	<path fill="#FFFFFF" d="M252.937,170.523l-2.611-75.488l0.889-3.154c0.154-0.627-0.014-0.967-0.607-0.883l-9.863,1.386
		c-0.476,0.066-0.918,0.371-0.97,0.862l-9.059,28.659l-11.022-25.837c-0.187-0.458-0.457-0.662-0.933-0.595l-9.862,1.386
		c-0.595,0.083-0.901,0.489-0.58,1.05l1.012,2.887l2.611,75.488l-0.787,3.019c-0.273,0.645,0.015,0.968,0.609,0.884l10.932-1.536
		c0.594-0.083,0.782-0.474,0.579-1.051l-1.113-2.751l-1.784-51.491l8.477,18.923c0.066,0.476,0.456,0.664,0.933,0.597l3.326-0.468
		c0.476-0.066,0.799-0.354,0.97-0.863l6.853-21.078l1.783,51.491l-0.787,3.019c-0.273,0.645,0.015,0.967,0.608,0.884l10.933-1.536
		c0.594-0.084,0.782-0.474,0.579-1.051L252.937,170.523z"/>
	<path fill="#FFFFFF" d="M291.076,90.035l-4.388-3.624c-0.286-0.324-0.541-0.409-1.018-0.342l-25.428,3.574
		c-0.594,0.083-0.901,0.49-0.58,1.05l1.012,2.888l2.612,75.488l-0.788,3.019c-0.273,0.645,0.015,0.967,0.608,0.884l10.933-1.536
		c0.594-0.084,0.782-0.474,0.579-1.051l-1.113-2.752l-1.063-32.567l14.854-2.088c0.475-0.066,0.696-0.219,1.002-0.626l4.05-4.81
		c0.306-0.407,0.392-0.661,0.443-1.153l-1.209-35.334C291.516,90.579,291.364,90.358,291.076,90.035z M272.076,124.695
		l-0.993-26.033l10.219-1.437l0.993,26.034L272.076,124.695z"/>
	<path fill="#FFFFFF" d="M326.092,158.547l-11.915-73.576l0.564-2.018c0.154-0.628-0.014-0.967-0.608-0.884L303.2,83.606
		c-0.594,0.083-0.9,0.49-0.579,1.05l0.623,1.852l-6.621,76.18l-1.267,4.783c-0.272,0.644,0.014,0.967,0.608,0.883l10.932-1.536
		c0.595-0.083,0.782-0.474,0.58-1.051l-0.81-2.31l1.024-17.715l6.299-0.885l2.421,17.23l-0.854,2.543
		c-0.273,0.645,0.015,0.968,0.728,0.867l10.813-1.52c0.594-0.084,0.782-0.473,0.579-1.051L326.092,158.547z M308.259,135.121
		l1.442-22.499l2.836,21.897L308.259,135.121z"/>
	<path fill="#FFFFFF" d="M363.279,137.931l-10.932,1.536c-0.595,0.084-0.781,0.474-0.58,1.051l1.114,2.752l0.188,6.517
		l-10.339,1.453l-2.113-62.471l10.338-1.453l0.188,6.517l-0.906,3.035c-0.155,0.627,0.134,0.951,0.728,0.867l10.933-1.537
		c0.594-0.083,0.781-0.473,0.46-1.034l-0.994-2.768l-0.35-11.1c-0.066-0.476-0.218-0.696-0.506-1.02l-4.387-3.624
		c-0.288-0.324-0.543-0.408-1.018-0.342l-19.369,2.722c-0.475,0.067-0.695,0.218-1.122,0.642l-3.931,4.793
		c-0.424,0.423-0.51,0.678-0.443,1.153l2.45,71.755c0.067,0.475,0.101,0.713,0.506,1.02l4.269,3.641
		c0.407,0.307,0.661,0.392,1.137,0.325l19.369-2.722c0.475-0.067,0.696-0.219,1.003-0.626l4.049-4.81
		c0.308-0.407,0.511-0.678,0.443-1.154l-0.364-11.218l0.787-3.019C364.161,138.17,363.874,137.848,363.279,137.931z"/>
	<path fill="#FFFFFF" d="M394.791,71.582c-0.32-0.561-0.474-0.781-1.067-0.698l-26.498,3.724c-0.594,0.083-0.917,0.371-0.953,0.982
		l-0.8,8.958c-0.053,0.492,0.234,0.815,0.711,0.749l9.506-1.336l2.423,68.971l-0.788,3.02c-0.272,0.644,0.015,0.967,0.609,0.883
		l10.932-1.536c0.595-0.083,0.783-0.474,0.58-1.051l-1.114-2.751l-2.423-68.972l9.388-1.319c0.475-0.066,0.9-0.49,0.715-0.949
		L394.791,71.582z"/>
	<path fill="#FFFFFF" d="M412.976,143.549l-0.691-1.479c-0.289-0.322-0.679-0.51-1.154-0.443l-6.179,0.868
		c-0.476,0.067-0.798,0.354-0.985,0.744l-0.733,1.679c-0.069,0.373-0.155,0.627-0.207,1.119l0.195,3.973
		c-0.052,0.491,0.101,0.713,0.269,1.052l0.812,1.461c0.17,0.34,0.559,0.528,1.034,0.461l6.179-0.868
		c0.476-0.066,0.799-0.355,1.104-0.762l0.615-1.662c0.069-0.372,0.154-0.627,0.206-1.118l-0.194-3.972
		C413.296,144.109,413.145,143.889,412.976,143.549z"/>
	<path fill="#FFFFFF" d="M404.586,132.125l6.179-0.867c0.475-0.067,0.797-0.354,0.969-0.863l0.805-2.9
		c0.186-0.39,0.152-0.627,0.103-0.984l-1.896-54.02l0.89-3.154c0.155-0.627-0.014-0.967-0.607-0.883l-10.934,1.537
		c-0.594,0.083-0.9,0.489-0.579,1.05l1.012,2.888l1.896,54.019c0.05,0.357,0.083,0.596,0.134,0.951l1.097,2.633
		C403.719,132.006,404.109,132.192,404.586,132.125z"/>
	
		<rect x="97.186" y="133.5" transform="matrix(-0.1396 -0.9902 0.9902 -0.1396 -76.5123 318.6731)" fill="#FFFFFF" width="6" height="118.152"/>
</g>
</svg>
