<svg version="1.1" xmlns="http://www.w3.org/2000/svg" xmlns:xlink="http://www.w3.org/1999/xlink" x="0px" y="0px" viewBox="0 0 1140.672 396.726" enable-background="new 0 0 1140.672 396.726" xml:space="preserve">
	<defs>
		<linearGradient id="grad1" x1="0%" y1="0%" x2="0%" y2="100%">
			<stop offset="15%" style="stop-color:rgb(253,253,253);stop-opacity:1;" />
			<stop offset="100%" style="stop-color:rgb(191,191,191);stop-opacity:1" />
		</linearGradient>
		<filter id="dropshadow">
			<feGaussianBlur in="SourceAlpha" result="blurOut" stdDeviation="1"/>
			<feOffset in="blurOut" result="dropBlur" dx="-4" dy="5"/>
			<feComposite operator="over" in="SourceGraphic" in2="dropBlur" result="final"/>
		</filter>
	</defs>
<g id="text">
	<g>
		<path fill="url(#grad1)" filter="url(#dropshadow)" d="M57.958,46.769c0.996-0.139,1.257,0.427,0.964,1.474L57.256,53.5l0.036,122.596
			c0.084,0.792-0.272,1.244-0.807,1.92l-7.029,8.019c-0.534,0.677-0.911,0.931-1.707,1.043l-32.44,4.54
			c-0.796,0.111-1.215-0.031-1.875-0.542l-6.903-6.069c-0.66-0.509-0.702-0.906-0.786-1.698L5.71,60.714l-1.518-4.812
			c-0.503-0.935,0.031-1.613,1.026-1.752l18.31-2.562c0.996-0.14,1.257,0.428,0.964,1.474l-1.666,5.257l0.037,114.958l17.314-2.423
			L40.141,55.896l-1.519-4.812c-0.503-0.935,0.031-1.613,1.026-1.752L57.958,46.769z"/>
		<path fill="url(#grad1)" filter="url(#dropshadow)" d="M89.483,175.128l1.612,4.356c0.289,0.914-0.03,1.531-0.976,1.664l-17.395,2.435
			c-0.945,0.132-1.383-0.379-0.915-1.399l1.413-4.779L73.25,57.877l-1.443-4.572c-0.478-0.886,0.03-1.53,0.975-1.663l40.463-5.663
			c0.756-0.106,1.154,0.029,1.591,0.54l6.747,5.738c0.438,0.512,0.667,0.862,0.746,1.614l-0.033,55.948
			c-0.109,0.779-0.258,1.181-0.766,1.826l-6.678,7.617c-0.507,0.643-0.866,0.884-1.622,0.99l-23.634,3.308L89.483,175.128z
			 M89.587,107.143l16.26-2.276l-0.137-41.222l-16.26,2.276L89.587,107.143z"/>
		<path fill="url(#grad1)" filter="url(#dropshadow)" d="M140.79,174.057c-0.756,0.105-1.154-0.03-1.781-0.514l-6.558-5.766c-0.627-0.485-0.667-0.861-0.747-1.613
			l0.077-113.614c-0.08-0.752,0.069-1.156,0.766-1.826l6.488-7.59c0.697-0.67,1.056-0.911,1.812-1.017l30.819-4.313
			c0.757-0.106,1.154,0.029,1.592,0.541l6.747,5.738c0.438,0.512,0.667,0.862,0.746,1.614L180.69,63.27l1.423,4.383
			c0.478,0.888,0.159,1.505-0.786,1.637l-17.396,2.435c-0.945,0.132-1.383-0.378-1.104-1.373l1.603-4.807l0.06-10.318l-16.26,2.276
			l-0.095,98.915l16.261-2.276l-0.019-32.837l-3.403,0.476c-0.756,0.106-1.174-0.218-1.254-0.97l-2.965-13.522
			c-0.289-0.915,0.03-1.531,0.976-1.664l23.445-3.282c0.945-0.132,1.383,0.378,1.104,1.373l-1.582,4.995l-0.023,50.6
			c0.08,0.752-0.258,1.181-0.766,1.825l-6.678,7.618c-0.507,0.643-0.866,0.884-1.622,0.99L140.79,174.057z"/>
		<path fill="url(#grad1)" filter="url(#dropshadow)" d="M213.988,162.284c0.289,0.914-0.03,1.531-0.975,1.664l-17.395,2.435c-0.945,0.132-1.383-0.379-0.916-1.399
			l1.413-4.779l0.027-119.527l-1.443-4.572c-0.477-0.886,0.03-1.53,0.976-1.663l40.462-5.663c0.757-0.106,1.155,0.029,1.592,0.541
			l6.747,5.738c0.438,0.512,0.667,0.862,0.747,1.614l-0.033,55.947c-0.109,0.779-0.259,1.181-0.766,1.826l-7.354,8.475l7.022,48.277
			l2.04,6.588c0.289,0.914-0.03,1.531-0.976,1.664l-17.206,2.408c-1.135,0.159-1.572-0.353-1.104-1.373l1.304-4.002l-7.53-51.261
			l-8.13,1.138l-0.113,51.568L213.988,162.284z M212.479,89.942l16.449-2.302l-0.137-41.222l-16.449,2.302L212.479,89.942z"/>
		<path fill="url(#grad1)" filter="url(#dropshadow)" d="M303.04,142.565l2.269,6.938c0.289,0.914-0.03,1.531-0.975,1.664l-17.206,2.408
			c-1.134,0.159-1.572-0.353-1.104-1.373l1.493-4.028l-2.884-27.28l-10.021,1.403l-2.599,28.047l1.154,3.658
			c0.289,0.914-0.03,1.531-0.975,1.664l-17.395,2.435c-0.945,0.132-1.383-0.379-0.916-1.399l2.27-7.573l14.685-120.623l-0.885-2.931
			c-0.478-0.887,0.03-1.53,0.975-1.663l17.396-2.435c0.945-0.132,1.194,0.406,0.915,1.398l-1.005,3.196L303.04,142.565z
			 M276.094,105.477l6.807-0.953l-3.282-34.671L276.094,105.477z"/>
		<path fill="url(#grad1)" filter="url(#dropshadow)" d="M315.233,23.819l-1.423-4.384c-0.288-0.913,0.22-1.557,1.165-1.689l40.462-5.663
			c0.756-0.106,1.154,0.029,1.592,0.54l6.747,5.738c0.438,0.512,0.667,0.862,0.746,1.614l-0.076,113.615
			c0.08,0.752-0.259,1.181-0.766,1.825l-6.678,7.618c-0.508,0.643-0.866,0.884-1.622,0.99l-40.462,5.663
			c-0.945,0.132-1.383-0.379-1.104-1.373l1.393-4.968L315.233,23.819z M331.812,31.809l-0.095,98.915l16.261-2.276l0.095-98.915
			L331.812,31.809z"/>
		<path fill="url(#grad1)" filter="url(#dropshadow)" d="M425.006,132.941c-0.279,0.993-0.617,1.422-1.562,1.555l-46.135,6.457
			c-0.945,0.132-1.383-0.379-0.916-1.399l1.394-4.968l0.027-119.525l-1.423-4.385c-0.477-0.886,0.03-1.53,0.976-1.663l46.135-6.457
			c0.945-0.132,1.174,0.217,1.652,1.105l1.432,13.547c0.269,0.726-0.239,1.37-0.995,1.476l-31.387,4.393l-0.052,41.247l10.21-1.429
			l4.757-2.194c0.905-0.507,1.513-0.211,1.422,0.756l0.128,17.548c-0.089,0.967-0.617,1.423-1.602,1.178l-4.697-0.871l-10.21,1.429
			l-0.052,41.249l31.386-4.393c0.757-0.106,1.384,0.378,1.085,1.184L425.006,132.941z"/>
	</g>
	<g>
		<path fill="url(#grad1)" filter="url(#dropshadow)" d="M216.498,283.552l-0.161,57.706l1.718,4.785c0.303,0.961-0.032,1.611-1.027,1.751l-18.309,2.562
			c-0.996,0.139-1.457-0.4-0.965-1.473l1.467-5.23l0.077-58.498l-15.856-65.915l-2.786-3.428c-0.702-0.907-0.188-1.783,0.807-1.923
			l20.499-2.869c0.995-0.139,1.256,0.428,0.963,1.474l-0.901,2.939l5.78,35.57l5.763-37.186l-0.89-2.689
			c-0.503-0.935,0.031-1.613,1.225-1.78l20.3-2.841c1.194-0.167,1.477,0.598,0.984,1.672l-2.808,4.01L216.498,283.552z"/>
		<path fill="url(#grad1)" filter="url(#dropshadow)" d="M285.753,199.293c0.796-0.111,1.215,0.031,1.676,0.57l7.102,6.041c0.461,0.539,0.701,0.907,0.785,1.699
			L295.236,327.2c0.084,0.792-0.272,1.244-0.807,1.921l-7.029,8.019c-0.534,0.679-0.912,0.933-1.708,1.044l-32.44,4.54
			c-0.796,0.111-1.214-0.031-1.875-0.542l-6.902-6.068c-0.66-0.511-0.702-0.907-0.786-1.699l0.08-119.597
			c-0.083-0.792,0.073-1.215,0.806-1.921l6.83-7.99c0.733-0.706,1.11-0.96,1.906-1.071L285.753,199.293z M277.823,217.89
			l-17.116,2.396l0.1,104.096l17.115-2.396L277.823,217.89z"/>
		<path fill="url(#grad1)" filter="url(#dropshadow)" d="M361.578,188.681c0.995-0.139,1.256,0.428,0.963,1.474l-1.666,5.258l0.036,122.596
			c0.084,0.792-0.272,1.244-0.807,1.922l-7.029,8.018c-0.534,0.679-0.912,0.933-1.708,1.044l-32.439,4.54
			c-0.797,0.112-1.215-0.03-1.876-0.542l-6.902-6.068c-0.661-0.51-0.702-0.906-0.786-1.698l-0.036-122.596l-1.518-4.812
			c-0.503-0.935,0.031-1.613,1.026-1.752l18.31-2.562c0.995-0.14,1.256,0.427,0.963,1.473l-1.666,5.258l0.036,114.958l17.315-2.424
			l-0.036-114.958l-1.519-4.812c-0.503-0.935,0.031-1.613,1.026-1.752L361.578,188.681z"/>
		<path fill="url(#grad1)" filter="url(#dropshadow)" d="M395.979,321.141c0.304,0.961-0.032,1.611-1.026,1.751l-18.311,2.562
			c-0.995,0.139-1.456-0.399-0.963-1.473l1.487-5.032l0.027-125.821l-1.518-4.812c-0.503-0.935,0.031-1.613,1.026-1.752l42.59-5.961
			c0.796-0.111,1.215,0.031,1.676,0.57l7.102,6.04c0.461,0.539,0.702,0.907,0.786,1.699l-0.035,58.894
			c-0.115,0.821-0.272,1.243-0.807,1.921l-7.741,8.923l7.393,50.818l2.147,6.937c0.304,0.961-0.031,1.611-1.027,1.751l-18.11,2.534
			c-1.193,0.167-1.654-0.372-1.162-1.444l1.372-4.213l-7.927-53.96l-8.558,1.198l-0.118,54.282L395.979,321.141z M394.391,244.987
			l17.314-2.424l-0.144-43.392l-17.315,2.423L394.391,244.987z"/>
	</g>
	<g>
		<path fill="url(#grad1)" filter="url(#dropshadow)" d="M502.738,148.623l-2.247-6.921c-0.753-1.401,0.048-2.418,1.541-2.627l63.885-8.941
			c1.193-0.167,1.822,0.046,2.514,0.854l10.652,9.062c0.691,0.808,1.053,1.36,1.179,2.547l-0.24,75.102
			c0.126,1.189-0.11,1.824-1.21,2.882l-11.91,13.424l11.972,10.083c0.99,0.766,1.352,1.317,1.179,2.548l0.091,75.357
			c0.125,1.188-0.409,1.866-1.21,2.883l-10.544,12.026c-0.801,1.017-1.367,1.397-2.561,1.565l-63.885,8.941
			c-1.493,0.208-2.184-0.6-1.446-2.21l2.2-7.845L502.738,148.623z M554.52,248.701l-25.673,3.594l-0.082,65.131l25.674-3.594
			L554.52,248.701z M528.914,161.24l-0.082,65.13l25.674-3.594l0.082-65.13L528.914,161.24z"/>
		<path fill="url(#grad1)" filter="url(#dropshadow)" d="M667.901,143.642c1.294-0.181,1.634,0.555,1.253,1.915l-2.166,6.834l0.046,159.37
			c0.108,1.029-0.354,1.616-1.049,2.498l-9.138,10.424c-0.693,0.88-1.185,1.21-2.219,1.355l-42.173,5.902
			c-1.035,0.145-1.579-0.041-2.438-0.703l-8.973-7.89c-0.858-0.665-0.913-1.18-1.021-2.209l-0.046-159.369l-1.974-6.255
			c-0.654-1.215,0.04-2.096,1.334-2.277l23.803-3.332c1.294-0.181,1.634,0.555,1.253,1.915l-2.165,6.834l0.046,149.441l22.509-3.15
			l-0.046-149.441l-1.975-6.255c-0.653-1.214,0.041-2.096,1.335-2.277L667.901,143.642z"/>
		<path fill="url(#grad1)" filter="url(#dropshadow)" d="M754.013,168.429l1.946,5.998c0.653,1.216-0.041,2.096-1.334,2.277l-23.803,3.332
			c-1.294,0.181-1.634-0.555-1.512-1.879l2.192-6.577l-0.176-14.083l-22.25,3.114l0.188,56.409l32.34-4.526
			c1.035-0.145,1.58,0.04,2.179,0.74l9.232,7.852c0.599,0.7,0.912,1.178,1.021,2.208l-0.072,76.302
			c0.109,1.029-0.354,1.616-1.048,2.498l-9.138,10.424c-0.694,0.88-1.185,1.21-2.22,1.355l-42.173,5.902
			c-1.034,0.145-1.579-0.04-2.437-0.703l-9.232-7.854c-0.857-0.665-0.912-1.179-1.021-2.208l0.083-24.049l-2.206-5.962
			c-0.136-1.287,0.3-2.133,1.594-2.313l23.803-3.332c1.293-0.181,1.893,0.521,1.252,1.916l-1.934,6.541l-0.082,14.12l22.25-3.114
			l0.071-56.445l-32.082,4.49c-1.035,0.145-1.58-0.04-2.438-0.704l-9.231-7.853c-0.858-0.664-1.171-1.143-1.021-2.208l0.045-76.559
			c-0.109-1.03,0.095-1.581,1.049-2.499l9.137-10.423c0.954-0.917,1.444-1.248,2.479-1.393l42.172-5.902
			c1.034-0.145,1.579,0.041,2.179,0.741l9.231,7.852c0.599,0.7,0.912,1.178,1.021,2.208L754.013,168.429z"/>
		<path fill="url(#grad1)" filter="url(#dropshadow)" d="M796.055,297.885l2.205,5.96c0.396,1.252-0.041,2.097-1.334,2.278l-23.803,3.331
			c-1.294,0.181-1.893-0.519-1.253-1.916l1.934-6.539l0.036-163.562l-1.974-6.255c-0.654-1.215,0.041-2.096,1.334-2.277
			l23.803-3.331c1.294-0.181,1.634,0.555,1.253,1.915l-2.165,6.835L796.055,297.885z"/>
		<path fill="url(#grad1)" filter="url(#dropshadow)" d="M839.521,291.801l2.205,5.961c0.395,1.252-0.041,2.097-1.334,2.277l-23.803,3.332
			c-1.294,0.181-1.893-0.52-1.253-1.916l1.934-6.54l0.036-163.562l-1.974-6.256c-0.654-1.215,0.041-2.096,1.334-2.277l21.475-3.005
			c1.035-0.145,1.348,0.334,1.715,1.328l22.26,93.817l-0.05-89.871l-1.975-6.256c-0.653-1.214,0.041-2.096,1.335-2.277l23.802-3.331
			c1.295-0.181,1.635,0.555,1.254,1.915l-2.166,6.835l-0.036,163.562l2.205,5.961c0.396,1.252-0.04,2.097-1.334,2.277l-21.474,3.006
			c-1.035,0.145-1.607-0.298-1.716-1.329l-22.259-93.815L839.521,291.801z"/>
		<path fill="url(#grad1)" filter="url(#dropshadow)" d="M970.08,280.059c-0.381,1.36-0.845,1.947-2.138,2.129l-63.129,8.835c-1.294,0.182-1.893-0.519-1.253-1.915
			l1.907-6.799l0.035-163.56l-1.946-5.999c-0.654-1.215,0.041-2.096,1.334-2.277l63.129-8.835c1.294-0.181,1.607,0.298,2.261,1.512
			l1.96,18.537c0.367,0.994-0.327,1.875-1.362,2.02l-42.948,6.011l-0.07,56.444l13.971-1.956l6.51-3
			c1.238-0.697,2.069-0.29,1.946,1.033l0.176,24.012c-0.123,1.324-0.845,1.948-2.192,1.614l-6.428-1.19l-13.971,1.956l-0.071,56.443
			l42.948-6.011c1.035-0.145,1.894,0.52,1.484,1.622L970.08,280.059z"/>
		<path fill="url(#grad1)" filter="url(#dropshadow)" d="M1052.837,126.605l1.947,5.998c0.653,1.216-0.041,2.096-1.335,2.277l-23.803,3.332
			c-1.294,0.181-1.634-0.554-1.512-1.878l2.193-6.577l-0.177-14.083l-22.25,3.114l0.188,56.409l32.341-4.526
			c1.034-0.145,1.579,0.04,2.179,0.74l9.231,7.852c0.6,0.7,0.912,1.179,1.021,2.209l-0.072,76.301
			c0.108,1.029-0.354,1.616-1.049,2.499l-9.138,10.424c-0.693,0.88-1.185,1.21-2.22,1.355l-42.172,5.902
			c-1.035,0.145-1.579-0.041-2.438-0.704l-9.231-7.853c-0.858-0.665-0.913-1.18-1.021-2.209l0.083-24.049l-2.205-5.961
			c-0.137-1.287,0.299-2.133,1.593-2.314l23.803-3.331c1.294-0.181,1.893,0.52,1.253,1.916l-1.934,6.541l-0.083,14.121l22.251-3.114
			l0.07-56.445l-32.082,4.49c-1.034,0.145-1.579-0.04-2.438-0.704l-9.231-7.853c-0.858-0.664-1.171-1.142-1.021-2.208l0.045-76.559
			c-0.108-1.03,0.096-1.581,1.049-2.499l9.138-10.423c0.953-0.917,1.443-1.248,2.479-1.393l42.172-5.902
			c1.035-0.145,1.58,0.041,2.179,0.741l9.231,7.852c0.6,0.7,0.913,1.178,1.021,2.208L1052.837,126.605z"/>
		<path fill="url(#grad1)" filter="url(#dropshadow)" d="M1138.475,114.62l1.947,5.998c0.653,1.216-0.041,2.096-1.335,2.277l-23.803,3.332
			c-1.294,0.181-1.634-0.555-1.512-1.879l2.193-6.577l-0.177-14.083l-22.25,3.114l0.188,56.409l32.341-4.526
			c1.035-0.145,1.579,0.04,2.179,0.74l9.231,7.852c0.6,0.7,0.912,1.178,1.021,2.208l-0.072,76.301
			c0.108,1.029-0.354,1.617-1.049,2.499l-9.138,10.424c-0.693,0.88-1.185,1.211-2.22,1.355l-42.172,5.902
			c-1.035,0.145-1.579-0.041-2.438-0.703l-9.231-7.854c-0.858-0.664-0.913-1.18-1.021-2.209l0.083-24.048l-2.205-5.962
			c-0.137-1.287,0.299-2.133,1.593-2.314l23.803-3.332c1.294-0.181,1.893,0.52,1.253,1.916l-1.934,6.541l-0.083,14.12l22.251-3.114
			l0.07-56.445l-32.082,4.49c-1.034,0.145-1.579-0.04-2.438-0.704l-9.231-7.853c-0.858-0.664-1.171-1.143-1.021-2.208l0.045-76.559
			c-0.108-1.03,0.096-1.581,1.049-2.499l9.138-10.423c0.953-0.917,1.443-1.248,2.479-1.393l42.172-5.902
			c1.035-0.145,1.58,0.041,2.179,0.741l9.231,7.852c0.6,0.7,0.913,1.178,1.021,2.208L1138.475,114.62z"/>
	</g>
	<polygon fill="url(#grad1)" filter="url(#dropshadow)" points="184.139,390.726 429.456,356.222 429.099,346.27 429.086,346.176 183.779,380.678 	"/>
</g>
</svg>
