<svg version="1.1" xmlns="http://www.w3.org/2000/svg" width="480px" height="32px" viewBox="0 0 480 32" enable-background="new 0 0 480 32" xml:space="preserve" style="display:none;" role="img" aria-labelledby="img-title img-desc">
	<symbol id="icon-menu" viewbox="0 0 32 32">
		<title id="img-title">Menu</title>
		<desc id="img-desc">The site navigation</desc>
		<path d="M32,30.5H0v-5.75h32V30.5z M32,19H0v-5.625h32V19z M32,7.625H0V1.5h32V7.625z"/>
	</symbol>
	<symbol id="icon-search" viewbox="32 0 32 32">
		<title id="img-title">Search</title>
		<desc id="img-desc">Search the site</desc>
		<path d="M64.002,28.641l-3.359,3.361l-8.127-8.13c-2.113,1.441-4.675,2.304-7.428,2.304
			C37.855,26.176,32,20.322,32,13.088C32,5.855,37.855,0,45.088,0c7.233,0,13.088,5.855,13.088,13.088
			c0,2.752-0.862,5.312-2.301,7.392L64.002,28.641z M45.09,4.35c-4.832,0-8.736,3.903-8.736,8.735c0,4.803,3.904,8.704,8.736,8.704
			c4.8,0,8.708-3.903,8.708-8.704C53.798,8.253,49.89,4.35,45.09,4.35z"/>
	</symbol>
	<symbol id="icon-phone" viewbox="64 0 32 32">
		<title id="img-title">Telephone</title>
		<desc id="img-desc">The number to call us</desc>
		<path d="M76.873,8.462c0,0-0.094,0.428-0.71,1.191c-0.614,0.761-3.223,2.433-3.223,2.433l9.31,12.801l3.839-3.198
			c0,0,0.623-0.763,1.382-0.146c0.758,0.619,5.669,4.828,5.669,4.828s-0.75,3.431-1.792,4.093
			c-1.041,0.672-4.695,3.015-11.503-0.715c-6.811-3.737-12.457-14.838-13.046-20.35c-0.149-1.376-0.255-4.988,4.719-9.283
			c0.525-0.336,3.092,0.229,3.333,1.179C75.092,2.244,76.873,8.462,76.873,8.462z"/>
	</symbol>
	<symbol id="icon-location" viewbox="96 0 32 32">
		<title id="img-title">Location</title>
		<desc id="img-desc">Where to mail items to us</desc>
		<path d="M111.905,31.878c-9.341-17.373-9.341-22.537-9.341-22.537c0-5.164,4.177-9.341,9.341-9.341
			c5.168,0,9.345,4.179,9.345,9.341C121.246,9.341,121.246,14.505,111.905,31.878z M111.905,6.598c-1.53,0-2.74,1.215-2.74,2.743
			c0,1.528,1.21,2.743,2.74,2.743c1.529,0,2.745-1.212,2.745-2.743C114.646,7.811,113.435,6.598,111.905,6.598z"/>
	</symbol>
	<symbol id="icon-facebook" viewbox="128 0 32 32">
		<title id="img-title">Facebook</title>
		<desc id="img-desc">Our Facebook profile</desc>
		<path d="M151.038,10.56l-0.367,4.767h-4.887v16.569h-6.178V15.327h-3.272V10.56h3.272V9.072V7.58V7.333
			c0-1.413,0.044-3.564,1.077-4.931C141.763,0.995,143.255,0,145.784,0c0,0,4.141,0,5.921,0.621l-0.833,4.888
			c-1.366-0.415-2.648-0.415-2.648-0.415c-1.284,0-2.439,0.458-2.439,1.739v0.504v1.737v1.49h5.254V10.56z"/>
	</symbol>
	<symbol id="icon-twitter" viewbox="160 0 32 32">
		<title id="img-title">Twitter</title>
		<desc id="img-desc">Our Twitter profile</desc>
		<path d="M188.707,9.526c0.014,0.28,0.018,0.564,0.018,0.846c-0.001,8.67-6.598,18.668-18.668,18.668
			c-3.704,0-7.154-1.088-10.057-2.949c0.513,0.063,1.038,0.096,1.565,0.096c3.078,0,5.903-1.055,8.148-2.811
			c-2.873-0.052-5.293-1.951-6.126-4.554c0.399,0.077,0.812,0.117,1.232,0.117c0.599,0,1.178-0.077,1.728-0.229
			c-3-0.602-5.262-3.257-5.262-6.437c0-0.028,0-0.056,0.002-0.081c0.886,0.495,1.898,0.787,2.972,0.819
			c-1.763-1.176-2.922-3.183-2.922-5.461c0-1.204,0.325-2.331,0.887-3.296c3.237,3.967,8.072,6.583,13.523,6.854
			c-0.111-0.478-0.167-0.982-0.167-1.498c0-3.621,2.938-6.558,6.562-6.558c1.888,0,3.591,0.795,4.793,2.073
			c1.487-0.294,2.889-0.841,4.162-1.591c-0.492,1.531-1.532,2.816-2.886,3.63c1.325-0.159,2.591-0.514,3.768-1.036
			C191.101,7.447,189.989,8.601,188.707,9.526z"/>
	</symbol>
	<symbol id="icon-google" viewbox="192 0 32 32">
		<title id="img-title">Google Plus</title>
		<desc id="img-desc">Our Google Plus profile</desc>
		<path d="M203.5,15.75c0-0.75,0.36-0.895,1-1.375c1-0.75,3.984-1.567,3.984-6.487c0-1.545-0.928-3.581-2.234-4.492
			l2.625-0.021l2.5-1.551c-6.75,0-9.794-0.236-12.296,0.551c-2.98,0.993-5.04,3.273-5.04,6.494c0,3.73,2.58,6.131,6.27,6.131h0.239
			c-0.923,1.125-0.298,2.25,0.912,3.454c-3.809,0-8.968,1.325-8.968,6.005c0,4.445,4.402,6.048,8.13,6.048
			c4.372,0,9.012-2.106,9.012-7.106C209.635,19.681,203.5,17.255,203.5,15.75z M197.072,7.467c0-1.844,0.884-3.826,3.327-3.826
			c3.267,0,4.88,3.826,4.88,6.164c0,1.844-0.835,3.825-3.326,3.825C198.685,13.629,197.072,9.805,197.072,7.467z M202.235,28.43
			c-4.034,0-6.235-2.04-6.235-4.523c0-3.301,4.315-4.156,6.602-4.156c1.467,1.223,4.523,2.569,4.523,5.013
			C207.125,27.247,204.369,28.43,202.235,28.43z"/>
		<polygon points="218,8 218,2 216,2 216,8 210,8 210,10 216,10 216,16 218,16 218,10 224,10 224,8 		"/>
	</symbol>
	<symbol id="icon-rss" viewbox="224 0 32 32">
		<title id="img-title">RSS</title>
		<desc id="img-desc">Our blog RSS feed</desc>
		<path d="M228.247,31.962c-2.346,0-4.247-1.906-4.247-4.244c0-2.351,1.901-4.253,4.247-4.253
			c2.346,0,4.248,1.902,4.248,4.253C232.495,30.062,230.593,31.962,228.247,31.962z M238.906,31.995c0-4.02-1.548-7.779-4.368-10.604
			C231.725,18.558,227.983,17,224.003,17v-6.128c11.6,0,21.039,9.474,21.039,21.123H238.906z M249.741,32
			c0-14.265-11.543-25.868-25.727-25.868V0c17.569,0,31.854,14.35,31.854,32H249.741z"/>
	</symbol>
	<symbol id="icon-email" viewbox="256 0 32 32">
		<title id="img-title">Email</title>
		<desc id="img-desc">Our office email address</desc>
			<path d="M288,26.664V9.093l-15.084,12.579h-1.863L256,9.093v17.571H288z M272,18.251l16-12.915h-32L272,18.251z"/>
	</symbol>
	<symbol id="icon-linkedin" viewbox="288 0 32 32">
		<title id="img-title">LinkedIn</title>
		<desc id="img-desc">Our LinkedIn profile</desc>
		<path d="M295.02,31.938h-6.799V9.678h6.799V31.938z M291.567,6.97
			c-2.126,0-3.505-1.542-3.505-3.454c0-1.965,1.438-3.454,3.613-3.454c2.178,0,3.557,1.489,3.557,3.454
			C295.287,5.429,293.854,6.97,291.567,6.97z M319.938,31.938h-6.851V19.614c0-2.872-0.956-4.833-3.45-4.833
			c-1.863,0-2.982,1.328-3.511,2.603c-0.159,0.475-0.216,1.113-0.216,1.75v12.803h-6.799v-15.14c0-2.762-0.105-5.1-0.162-7.115h5.898
			l0.322,3.132h0.105c0.903-1.487,3.133-3.615,6.794-3.615c4.463,0,7.868,3.033,7.868,9.618V31.938z"/>
	</symbol>
	<symbol id="icon-youtube" viewbox="320 0 32 32">
		<title id="img-title">YouTube</title>
		<desc id="img-desc">Our YouTube profile</desc>
		<path d="M351.736,10.564c-0.195-2.554-2.18-4.057-4.617-4.167c-3.671-0.185-7.428-0.185-11.144-0.185
			c-3.71,0-7.493,0-11.169,0.185c-2.441,0.115-4.432,1.613-4.613,4.167c-0.111,1.792-0.193,3.634-0.193,5.439
			c0,1.8,0.113,3.635,0.225,5.439c0.185,2.542,2.175,4.04,4.612,4.155c3.675,0.19,7.429,0.19,11.139,0.19
			c3.716,0,7.422,0,11.144-0.19c2.438-0.115,4.422-1.613,4.617-4.155c0.114-1.804,0.216-3.639,0.216-5.439
			C351.952,14.198,351.847,12.356,351.736,10.564z M333,20.261v-8.429l7.367,4.215L333,20.261z"/>
	</symbol>
	<symbol id="icon-quote" viewbox="352 0 32 32">
		<title id="img-title"></title>
		<desc id="img-desc"></desc>
		<g>
			<path d="M366.893,8.017V1.641c-3.038,0.623-5.779,1.869-8.213,3.733c-2.442,1.871-4.163,4.142-5.165,6.817
				C352.504,14.869,352,18.295,352,22.475v7.963h14.893V13.015h-3.682C363.509,10.929,364.733,9.262,366.893,8.017z"/>
			<path d="M384.001,7.956V1.562c-3.05,0.625-5.794,1.875-8.237,3.744c-2.446,1.877-4.171,4.157-5.178,6.838
				c-1.015,2.682-1.519,6.116-1.519,10.308v7.984h14.934V12.967h-3.691C380.605,10.877,381.834,9.206,384.001,7.956z"/>
		</g>
	</symbol>
	<symbol id="icon-logo" viewbox="384 0 32 32">
		<title id="img-title">Logo design</title>
		<desc id="img-desc"></desc>
		<path d="M399.961,7.996l1.858,5.672L402.269,15h1.453h6.145l-5.014,3.787l-1.147,0.881l0.439,1.373l1.891,5.872l-4.902-3.536
			l-1.177-0.848l-1.172,0.855l-4.9,3.572l1.895-5.92l0.437-1.36l-1.146-0.903L390.063,15h6.137h1.453l0.449-1.332L399.961,7.996
			 M399.962,1.422L396.2,13h-12.175l9.849,7.378l-3.763,11.778l9.851-7.167l9.849,7.115l-3.763-11.717L415.896,13h-12.175
			L399.962,1.422L399.962,1.422z"/>
	</symbol>
	<symbol id="icon-website" viewbox="416 0 32 32">
		<title id="img-title">Website design</title>
		<desc id="img-desc"></desc>
		<g>
			<rect x="432.25" y="5.904" transform="matrix(-0.9828 -0.1846 0.1846 -0.9828 855.5885 117.1744)" width="1.999" height="25.692"/>
			<polygon points="426.37,14.182 425.19,12.568 416.1,19.213 425.316,26.533 426.561,24.967 419.398,19.279 		"/>
			<polygon points="438.497,12.568 437.317,14.182 444.289,19.279 437.127,24.967 438.371,26.533 447.588,19.213 		"/>
		</g>
	</symbol>
	<symbol id="icon-graphic" viewbox="448 0 32 32">
		<title id="img-title">Graphic Design</title>
		<desc id="img-desc"></desc>
		<g>
			<path d="M470.492,5H455v27h21V12.012L470.492,5z M474,30h-17V7h12v7h5V30z"/>
			<rect x="460" y="24" width="11" height="2"/>
			<rect x="460" y="18" width="11" height="2"/>
		</g>
	</symbol>
</svg>
