<svg version="1.1" xmlns="http://www.w3.org/2000/svg" width="490px" height="32px" viewBox="0 0 490 32" enable-background="new 0 0 490 32" xml:space="preserve" style="display:none;" role="img" aria-labelledby="img-title img-desc">
	
	<symbol id="icon-search" viewbox="0 0 32 32">
		<title id="img-title">Search</title>
		<desc id="img-desc">Search the site</desc>
		<path fill="#221F1F" d="M32.785,28.641l-3.359,3.361l-8.127-8.13c-2.113,1.441-4.675,2.304-7.428,2.304
			c-7.233,0-13.088-5.854-13.088-13.088C0.783,5.855,6.638,0,13.871,0c7.233,0,13.088,5.855,13.088,13.088
			c0,2.752-0.862,5.312-2.301,7.392L32.785,28.641z M13.873,4.35c-4.832,0-8.736,3.903-8.736,8.735c0,4.803,3.904,8.704,8.736,8.704
			c4.8,0,8.708-3.903,8.708-8.704C22.581,8.253,18.673,4.35,13.873,4.35z"/>
	</symbol>
	<symbol id="icon-phone" viewbox="32 0 32 32">
		<title id="img-title">Telephone</title>
		<desc id="img-desc">The number to call us</desc>
		<path d="M45.655,8.462c0,0-0.094,0.428-0.71,1.191c-0.614,0.761-3.223,2.433-3.223,2.433l9.31,12.801l3.839-3.198
			c0,0,0.623-0.763,1.382-0.146c0.758,0.619,5.669,4.828,5.669,4.828s-0.75,3.431-1.792,4.093
			c-1.041,0.672-4.695,3.015-11.503-0.715c-6.811-3.737-12.457-14.838-13.046-20.35c-0.149-1.376-0.255-4.988,4.719-9.283
			c0.525-0.336,3.092,0.229,3.333,1.179C43.875,2.244,45.655,8.462,45.655,8.462z"/>
	</symbol>
	<symbol id="icon-location" viewbox="64 0 32 32">
		<title id="img-title">Location</title>
		<desc id="img-desc">Where to mail items to us</desc>
		<path fill="#231F20" d="M80.688,31.878c-9.341-17.373-9.341-22.537-9.341-22.537C71.347,4.177,75.524,0,80.688,0
			c5.168,0,9.345,4.179,9.345,9.341C90.029,9.341,90.029,14.505,80.688,31.878z M80.687,5.348c-2.227,0-3.989,1.769-3.989,3.993
			c0,2.225,1.762,3.993,3.989,3.993c2.226,0,3.996-1.765,3.996-3.993C84.676,7.114,82.913,5.348,80.687,5.348z"/>
	</symbol>
	<symbol id="icon-facebook" viewbox="96 0 32 32">
		<title id="img-title">Facebook</title>
		<desc id="img-desc">Our Facebook profile</desc>
		<path d="M119.82,10.56l-0.367,4.767h-4.887v16.569h-6.178V15.327h-3.272V10.56h3.272V9.072V7.58V7.333
			c0-1.413,0.044-3.564,1.077-4.931C110.546,0.995,112.038,0,114.566,0c0,0,4.141,0,5.921,0.621l-0.833,4.888
			c-1.366-0.415-2.648-0.415-2.648-0.415c-1.284,0-2.439,0.458-2.439,1.739v0.504v1.737v1.49h5.254V10.56z"/>
	</symbol>
	<symbol id="icon-twitter" viewbox="128 0 32 32">
		<title id="img-title">Twitter</title>
		<desc id="img-desc">Our Twitter profile</desc>
		<path d="M157.49,9.526c0.014,0.28,0.018,0.564,0.018,0.846c-0.001,8.67-6.598,18.668-18.668,18.668
			c-3.704,0-7.154-1.088-10.057-2.949c0.513,0.063,1.038,0.096,1.565,0.096c3.078,0,5.903-1.055,8.148-2.811
			c-2.873-0.052-5.293-1.951-6.126-4.554c0.399,0.077,0.812,0.117,1.232,0.117c0.599,0,1.178-0.077,1.728-0.229
			c-3-0.602-5.262-3.257-5.262-6.437c0-0.028,0-0.056,0.002-0.081c0.886,0.495,1.898,0.787,2.972,0.819
			c-1.763-1.176-2.922-3.183-2.922-5.461c0-1.204,0.325-2.331,0.887-3.296c3.237,3.967,8.072,6.583,13.523,6.854
			c-0.111-0.478-0.167-0.982-0.167-1.498c0-3.621,2.938-6.558,6.562-6.558c1.888,0,3.591,0.795,4.793,2.073
			c1.487-0.294,2.889-0.841,4.162-1.591c-0.492,1.531-1.532,2.816-2.886,3.63c1.325-0.159,2.591-0.514,3.768-1.036
			C159.883,7.447,158.771,8.601,157.49,9.526z"/>
	</symbol>
	<symbol id="icon-rss" viewbox="160 0 32 32">
		<title id="img-title">RSS</title>
		<desc id="img-desc">Our blog RSS feed</desc>
		<path d="M165.075,31.962c-2.346,0-4.247-1.906-4.247-4.244c0-2.351,1.901-4.253,4.247-4.253
			c2.346,0,4.248,1.902,4.248,4.253C169.323,30.062,167.421,31.962,165.075,31.962z M175.734,31.995c0-4.02-1.548-7.779-4.368-10.604
			C168.553,18.558,164.812,17,160.832,17v-6.128c11.6,0,21.039,9.474,21.039,21.123H175.734z M186.569,32
			c0-14.265-11.543-25.868-25.727-25.868V0c17.569,0,31.854,14.35,31.854,32H186.569z"/>
	</symbol>
	<symbol id="icon-email" viewbox="192 0 32 32">
		<title id="img-title">Email</title>
		<desc id="img-desc">Our office email address</desc>
		<path d="M224.828,26.664V9.093l-15.084,12.579h-1.863L192.828,9.093v17.571H224.828z M208.828,18.251l16-12.915
			h-32L208.828,18.251z"/>
	</symbol>
	<symbol id="icon-linkedin" viewbox="224 0 32 32">
		<title id="img-title">LinkedIn</title>
		<desc id="img-desc">Our LinkedIn profile</desc>
		<path d="M231.848,31.938h-6.799V9.678h6.799V31.938z M228.396,6.97
			c-2.126,0-3.505-1.542-3.505-3.454c0-1.965,1.438-3.454,3.613-3.454c2.178,0,3.557,1.489,3.557,3.454
			C232.115,5.429,230.682,6.97,228.396,6.97z M256.766,31.938h-6.851V19.614c0-2.872-0.956-4.833-3.45-4.833
			c-1.863,0-2.982,1.328-3.511,2.603c-0.159,0.475-0.216,1.113-0.216,1.75v12.803h-6.799v-15.14c0-2.762-0.105-5.1-0.162-7.115h5.898
			l0.322,3.132h0.105c0.903-1.487,3.133-3.615,6.794-3.615c4.463,0,7.868,3.033,7.868,9.618V31.938z"/>
	</symbol>
	<symbol id="icon-youtube" viewbox="256 0 32 32">
		<title id="img-title">YouTube</title>
		<desc id="img-desc">Our YouTube profile</desc>
		<path d="M288.564,10.564c-0.195-2.554-2.18-4.057-4.617-4.167c-3.671-0.185-7.428-0.185-11.144-0.185
			c-3.71,0-7.493,0-11.169,0.185c-2.441,0.115-4.432,1.613-4.613,4.167c-0.111,1.792-0.193,3.634-0.193,5.439
			c0,1.8,0.113,3.635,0.225,5.439c0.185,2.542,2.175,4.04,4.612,4.155c3.675,0.19,7.429,0.19,11.139,0.19
			c3.716,0,7.422,0,11.144-0.19c2.438-0.115,4.422-1.613,4.617-4.155c0.114-1.804,0.216-3.639,0.216-5.439
			C288.78,14.198,288.675,12.356,288.564,10.564z M269.828,20.261v-8.429l7.367,4.215L269.828,20.261z"/>
	</symbol>
	<symbol id="icon-inbox" viewbox="288 0 32 32">
		<title id="img-title">Inbox</title>
		<desc id="img-desc">Inbox icon</desc>
		<polygon points="304.383,17.161 310.57,10.974 306.422,10.974 306.422,0.921 302.4,0.921 302.4,10.974 298.193,10.974 		"/>
		<polygon points="314.717,3.936 308.432,3.936 308.432,5.947 313.713,5.947 318.736,19.018 311.322,19.018 308.307,22.032 
			301.521,22.032 298.506,19.018 291.176,19.018 295.238,5.947 300.391,5.947 300.391,3.936 294.107,3.936 289.332,19.393 
			289.332,31.08 320.496,31.08 320.496,19.393 		"/>
	</symbol>
	</symbol>
	<symbol id="icon-logo" viewbox="320 0 32 32">
		<title id="img-title">Logo design</title>
		<desc id="img-desc"></desc>
		<g class="icon-logo__left">
			<line fill="none" class="stroke__1" stroke-linecap="round" stroke-miterlimit="10" x1="328.798" y1="7.223" x2="325.027" y2="2.117"/>
			<line fill="none" class="stroke__1" stroke-linecap="round" stroke-miterlimit="10" x1="325.214" y1="8.604" x2="322.7" y2="7.106"/>
			<line fill="none" class="stroke__1" stroke-linecap="round" stroke-miterlimit="10" x1="331.322" y1="4.285" x2="330.588" y2="1.284"/>
		</g>
		<g class="icon-logo__right">
			<line fill="none" class="stroke__1" stroke-linecap="round" stroke-miterlimit="10" x1="344.349" y1="7.223" x2="348.118" y2="2.117"/>
			<line fill="none" class="stroke__1" stroke-linecap="round" stroke-miterlimit="10" x1="347.932" y1="8.604" x2="350.446" y2="7.106"/>
			<line fill="none" class="stroke__1" stroke-linecap="round" stroke-miterlimit="10" x1="341.823" y1="4.285" x2="342.56" y2="1.284"/>
		</g>
		<g class="icon-logo__center">
			<path class="fill__1" d="M352.491,12.683l-10.825-1.616l-4.807-9.834l-4.882,9.796l-10.838,1.532l7.809,7.67l-1.895,10.781l9.71-5.055l9.668,5.131
				l-1.808-10.793L352.491,12.683z"/>
			<path class="fill__2" d="M344.785,28.801l-7.245-3.844l-0.771-0.41l-0.776,0.402l-7.271,3.789l1.416-8.076l0.153-0.861l-0.625-0.613
			l-5.85-5.747l8.12-1.146l0.866-0.125l0.389-0.781l3.66-7.34l3.599,7.368l0.385,0.787l0.864,0.128l8.108,1.211l-5.895,5.701
				l-0.627,0.607l0.145,0.861L344.785,28.801z"/>
		</g>
	</symbol>
	<symbol id="icon-design" viewbox="352 0 42 32">
		<title id="img-title">Graphic Design</title>
		<desc id="img-desc"></desc>
		<g class="icon-design__email">
			<path class="fill__1" d="M383.326,10.384c-5.824,0-10.561,4.738-10.561,10.56c0,5.823,4.736,10.561,10.561,10.561
				c5.82,0,10.559-4.737,10.559-10.561C393.885,15.122,389.146,10.384,383.326,10.384z M383.326,23.029
				c-1.15,0-2.086-0.936-2.086-2.086c0-1.148,0.936-2.084,2.086-2.084c1.148,0,2.084,0.936,2.084,2.084
				C385.41,22.094,384.475,23.029,383.326,23.029z"/>
			<path class="fill__2" d="M383.326,11.595c-5.156,0-9.352,4.193-9.352,9.349c0,5.154,4.195,9.351,9.352,9.351
				c5.154,0,9.348-4.196,9.348-9.351C392.674,15.788,388.48,11.595,383.326,11.595z M383.326,23.836
				c-1.596,0-2.893-1.297-2.893-2.893c0-1.595,1.297-2.892,2.893-2.892c1.594,0,2.891,1.297,2.891,2.892
				C386.217,22.539,384.92,23.836,383.326,23.836z"/>
		</g>
		<g class="icon-design__paper">
			<path class="fill__1" d="M375.422,0.332H361.49v28.989h21.539V8.599L375.422,0.332z"/>
			<path class="fill__2" d="M381.818,28.111h-19.117V1.542h12.176v7.499h6.916l0.025,0.028V28.111z"/>
		</g>
		<g class="icon-design__disc">
			<path class="fill__1" d="M353.414,22.356v9.147h17.756v-9.147H353.414z"/>
			<path class="fill__2" d="M368.535,23.295l-6.309,2.767l-6.279-2.767H368.535z M354.352,30.565v-7.17l7.875,3.57l8.006-3.621v7.221
				H354.352z"/>
		</g>
	</symbol>
	<symbol id="icon-website" viewbox="394 0 54 32">
		<title id="img-title">Website design</title>
		<desc id="img-desc"></desc>
		<g class="icon-website__computer">
			<path class="fill__1" d="M433.664,1.075h-30.503c-0.645,0-1.169,0.524-1.169,1.168V23.92c0,0.646,0.524,1.168,1.169,1.168h12.029
				v1.114c0,0.693-2.642,1.506-2.642,1.991c0,0.483,11.728,0.562,11.728,0c0-0.565-2.706-1.32-2.706-1.991v-1.114h12.094
				c0.645,0,1.169-0.522,1.169-1.168V2.243C434.833,1.6,434.309,1.075,433.664,1.075z"/>
			<path class="fill__2" d="M432.886,23.142h-28.946V3.022h28.946V23.142z"/>
		<g class="icon-website__phone">
			<path class="fill__1" d="M448.057,11.575c0-0.644-0.523-1.168-1.168-1.168h-26.727c-0.645,0-1.168,0.524-1.168,1.168v17.79
				c0,0.646,0.523,1.168,1.168,1.168h26.727c0.645,0,1.168-0.522,1.168-1.168V11.575z"/>
			<path class="fill__2" d="M445.856,29.365h-24.663v-17.79h24.663V29.365z"/>
		</g>
		<g class="icon-website__tablet">
			<path class="fill__1" d="M404.449,14.567c0-0.644-0.525-1.168-1.17-1.168h-6.359c-0.645,0-1.168,0.524-1.168,1.168v14.798
				c0,0.646,0.523,1.168,1.168,1.168h6.359c0.645,0,1.17-0.522,1.17-1.168V14.567z"/>
			<rect class="fill__2" x="396.399" y="15.168" width="7.402" height="13.596"/>
		</g>
	</symbol>
	<symbol id="icon-google" viewbox="448 0 42 32">
		<title id="img-title">Google+</title>
		<desc id="img-desc"></desc>
		<path d="M474.892,14.313h-11.524v4.04h6.013c-0.328,3.029-2.391,5.438-6.748,5.438
			c-4.324,0-7.827-3.29-7.827-7.613c0-4.323,3.503-7.72,7.827-7.72c2.059,0,3.925,0.854,5.323,2.154l3.211-3.777
			c-2.265-2.03-5.254-3.253-8.534-3.253c-7.067,0-12.795,5.736-12.795,12.802c0,7.067,5.728,12.798,12.795,12.798
			c7.575,0,12.263-5.747,12.278-12.777L474.892,14.313z"/>
		<polygon points="488.361,17.221 488.361,14.223 484.705,14.223 484.705,10.567 481.706,10.567 481.706,14.223 
			478.051,14.223 478.051,17.221 481.706,17.221 481.706,20.878 484.705,20.878 484.705,17.221 		"/>
	</symbol>

</svg>
