<?xml version="1.0" encoding="utf-8"?>
<!-- Generator: Adobe Illustrator 16.0.4, SVG Export Plug-In . SVG Version: 6.00 Build 0)  -->
<!DOCTYPE svg PUBLIC "-//W3C//DTD SVG 1.1//EN" "http://www.w3.org/Graphics/SVG/1.1/DTD/svg11.dtd">
<svg version="1.1" xmlns="http://www.w3.org/2000/svg" xmlns:xlink="http://www.w3.org/1999/xlink" x="0px" y="0px" width="678px"
	 height="32px" viewBox="0 0 678 32" enable-background="new 0 0 678 32" xml:space="preserve">
<g id="icon-menu">
	<path id="menu_1_" fill="#231F20" d="M19.453,30.5H0.828v-5.75h18.625V30.5z M26.078,19H0.828v-5.625h25.25V19z M32.828,7.625h-32
		V1.5h32V7.625z"/>
</g>
<g id="icon-search">
	<g id="search_2_">
		<path fill="#221F1F" d="M64.831,28.641l-3.359,3.361l-8.127-8.13c-2.113,1.441-4.675,2.304-7.428,2.304
			c-7.233,0-13.088-5.854-13.088-13.088C32.829,5.855,38.684,0,45.917,0c7.233,0,13.088,5.855,13.088,13.088
			c0,2.752-0.862,5.312-2.301,7.392L64.831,28.641z M45.918,4.35c-4.832,0-8.736,3.903-8.736,8.735c0,4.803,3.904,8.704,8.736,8.704
			c4.8,0,8.708-3.903,8.708-8.704C54.626,8.253,50.718,4.35,45.918,4.35z"/>
	</g>
</g>
<g id="icon-phone">
	<g id="phone_3_">
		<path fill="#231F20" d="M77.701,8.462c0,0-0.094,0.428-0.71,1.191c-0.614,0.761-3.223,2.433-3.223,2.433l9.31,12.801l3.839-3.198
			c0,0,0.623-0.763,1.382-0.146c0.758,0.619,5.669,4.828,5.669,4.828s-0.75,3.431-1.792,4.093
			c-1.041,0.672-4.695,3.015-11.503-0.715c-6.811-3.737-12.457-14.838-13.046-20.35c-0.149-1.376-0.255-4.988,4.719-9.283
			c0.525-0.336,3.092,0.229,3.333,1.179C75.92,2.244,77.701,8.462,77.701,8.462z"/>
	</g>
</g>
<g id="icon-location">
	<g id="location_4_">
		<g enable-background="new    ">
			<path fill="#231F20" d="M112.733,31.878c-9.341-17.373-9.341-22.537-9.341-22.537c0-5.164,4.177-9.341,9.341-9.341
				c5.168,0,9.345,4.179,9.345,9.341C122.074,9.341,122.074,14.505,112.733,31.878z M112.732,5.348
				c-2.227,0-3.989,1.769-3.989,3.993c0,2.225,1.762,3.993,3.989,3.993c2.226,0,3.996-1.765,3.996-3.993
				C116.721,7.114,114.958,5.348,112.732,5.348z"/>
		</g>
	</g>
</g>
<g id="icon-facebook">
	<g id="facebook_5_">
		<path fill="#231F20" d="M151.866,10.56l-0.367,4.767h-4.887v16.569h-6.178V15.327h-3.272V10.56h3.272V9.072V7.58V7.333
			c0-1.413,0.044-3.564,1.077-4.931C142.591,0.995,144.083,0,146.612,0c0,0,4.141,0,5.921,0.621L151.7,5.509
			c-1.366-0.415-2.648-0.415-2.648-0.415c-1.284,0-2.439,0.458-2.439,1.739v0.504v1.737v1.49h5.254V10.56z"/>
	</g>
</g>
<g id="icon-twitter">
	<g id="twitter_7_">
		<path fill="#231F20" d="M189.535,9.526c0.014,0.28,0.018,0.564,0.018,0.846c-0.001,8.67-6.598,18.668-18.668,18.668
			c-3.704,0-7.154-1.088-10.057-2.949c0.513,0.063,1.038,0.096,1.565,0.096c3.078,0,5.903-1.055,8.148-2.811
			c-2.873-0.052-5.293-1.951-6.126-4.554c0.399,0.077,0.812,0.117,1.232,0.117c0.599,0,1.178-0.077,1.728-0.229
			c-3-0.602-5.262-3.257-5.262-6.437c0-0.028,0-0.056,0.002-0.081c0.886,0.495,1.898,0.787,2.972,0.819
			c-1.763-1.176-2.922-3.183-2.922-5.461c0-1.204,0.325-2.331,0.887-3.296c3.237,3.967,8.072,6.583,13.523,6.854
			c-0.111-0.478-0.167-0.982-0.167-1.498c0-3.621,2.938-6.558,6.562-6.558c1.888,0,3.591,0.795,4.793,2.073
			c1.487-0.294,2.889-0.841,4.162-1.591c-0.492,1.531-1.532,2.816-2.886,3.63c1.325-0.159,2.591-0.514,3.768-1.036
			C191.929,7.447,190.817,8.601,189.535,9.526z"/>
	</g>
</g>
<g id="icon-inbox">
	<g>
		<polygon fill="#231F20" points="208.061,17.331 214.249,11.144 210.1,11.144 210.1,1.091 206.079,1.091 206.079,11.144 
			201.871,11.144 		"/>
		<polygon fill="#231F20" points="218.395,4.106 212.11,4.106 212.11,6.117 217.39,6.117 222.414,19.187 215.001,19.187 
			211.985,22.202 205.199,22.202 202.183,19.187 194.853,19.187 198.916,6.117 204.068,6.117 204.068,4.106 197.785,4.106 
			193.01,19.563 193.01,31.25 224.175,31.25 224.175,19.563 		"/>
	</g>
</g>
<g id="icon-rss">
	<path id="RSS_8_" fill="#231F20" d="M229.075,31.962c-2.346,0-4.247-1.906-4.247-4.244c0-2.351,1.901-4.253,4.247-4.253
		c2.346,0,4.248,1.902,4.248,4.253C233.323,30.062,231.421,31.962,229.075,31.962z M239.734,31.995c0-4.02-1.548-7.779-4.368-10.604
		C232.553,18.558,228.812,17,224.832,17v-6.128c11.6,0,21.039,9.474,21.039,21.123H239.734z M250.569,32
		c0-14.265-11.543-25.868-25.727-25.868V0c17.569,0,31.854,14.35,31.854,32H250.569z"/>
</g>
<g id="icon-email">
	<g id="email_9_">
		<path fill="#231F20" d="M288.828,26.664V9.093l-15.084,12.579h-1.863L256.828,9.093v17.571H288.828z M272.828,18.251l16-12.915
			h-32L272.828,18.251z"/>
	</g>
</g>
<g id="icon-linkedin">
	<path id="linkedin_10_" fill="#221F1F" d="M295.848,31.938h-6.799V9.678h6.799V31.938z M292.396,6.97
		c-2.126,0-3.505-1.542-3.505-3.454c0-1.965,1.438-3.454,3.613-3.454c2.178,0,3.557,1.489,3.557,3.454
		C296.115,5.429,294.682,6.97,292.396,6.97z M320.766,31.938h-6.851V19.614c0-2.872-0.956-4.833-3.45-4.833
		c-1.863,0-2.982,1.328-3.511,2.603c-0.159,0.475-0.216,1.113-0.216,1.75v12.803h-6.799v-15.14c0-2.762-0.105-5.1-0.162-7.115h5.898
		l0.322,3.132h0.105c0.903-1.487,3.133-3.615,6.794-3.615c4.463,0,7.868,3.033,7.868,9.618V31.938z"/>
</g>
<g id="icon-youtube">
	<path fill="#231F20" d="M352.564,10.564c-0.195-2.554-2.18-4.057-4.617-4.167c-3.671-0.185-7.428-0.185-11.144-0.185
		c-3.71,0-7.493,0-11.169,0.185c-2.441,0.115-4.432,1.613-4.613,4.167c-0.111,1.792-0.193,3.634-0.193,5.439
		c0,1.8,0.113,3.635,0.225,5.439c0.185,2.542,2.175,4.04,4.612,4.155c3.675,0.19,7.429,0.19,11.139,0.19
		c3.716,0,7.422,0,11.144-0.19c2.438-0.115,4.422-1.613,4.617-4.155c0.114-1.804,0.216-3.639,0.216-5.439
		C352.78,14.198,352.675,12.356,352.564,10.564z M333.828,20.261v-8.429l7.367,4.215L333.828,20.261z"/>
</g>
<g id="icon-quote">
	<g>
		<path fill="#231F20" d="M367.721,8.017V1.641c-3.038,0.623-5.779,1.869-8.213,3.733c-2.442,1.871-4.163,4.142-5.165,6.817
			c-1.011,2.677-1.515,6.104-1.515,10.283v7.963h14.893V13.015h-3.682C364.337,10.929,365.562,9.262,367.721,8.017z"/>
		<path fill="#231F20" d="M384.829,7.956V1.562c-3.05,0.625-5.794,1.875-8.237,3.744c-2.446,1.877-4.171,4.157-5.178,6.838
			c-1.015,2.682-1.519,6.116-1.519,10.308v7.984h14.934V12.967h-3.691C381.434,10.877,382.662,9.206,384.829,7.956z"/>
	</g>
</g>
<g id="icon-logo">
	<g>
		<g>
			
				<line fill="none" stroke="#231F20" stroke-linecap="round" stroke-miterlimit="10" x1="393.556" y1="8.099" x2="390.155" y2="3.493"/>
			
				<line fill="none" stroke="#231F20" stroke-linecap="round" stroke-miterlimit="10" x1="390.323" y1="9.345" x2="388.056" y2="7.993"/>
			
				<line fill="none" stroke="#231F20" stroke-linecap="round" stroke-miterlimit="10" x1="395.833" y1="5.449" x2="395.171" y2="2.742"/>
			<path fill="none" stroke="#231F20" stroke-linecap="round" stroke-miterlimit="10" d="M390.317,9.36"/>
		</g>
		<g>
			
				<line fill="none" stroke="#231F20" stroke-linecap="round" stroke-miterlimit="10" x1="407.583" y1="8.099" x2="410.983" y2="3.493"/>
			
				<line fill="none" stroke="#231F20" stroke-linecap="round" stroke-miterlimit="10" x1="410.815" y1="9.345" x2="413.083" y2="7.993"/>
			
				<line fill="none" stroke="#231F20" stroke-linecap="round" stroke-miterlimit="10" x1="405.306" y1="5.449" x2="405.97" y2="2.742"/>
		</g>
		<path fill="none" stroke="#231F20" stroke-linecap="round" stroke-miterlimit="10" d="M410.821,9.36"/>
		<g>
			<g>
				<path fill="#231F20" d="M410.452,31l-9.715-5.156l-9.756,5.08l1.902-10.832l-7.846-7.708l10.891-1.54L400.835,1l4.83,9.882
					l10.877,1.625l-7.906,7.646L410.452,31z"/>
			</g>
			<polygon fill="#58595B" points="388.396,13.485 394.536,19.625 409.817,12.922 404.708,12.172 400.817,4.532 396.974,12.266 			
				"/>
			<path fill="#FFFFFF" d="M414.929,13.023l-9.766-1.458l-4.335-8.871l-4.403,8.836l-9.776,1.382l7.043,6.918l-1.708,9.725
				l8.758-4.56l8.721,4.628l-1.631-9.737L414.929,13.023z M407.977,27.562l-6.534-3.467l-0.696-0.37l-0.7,0.364l-6.56,3.416
				l1.278-7.285l0.137-0.777l-0.562-0.552l-5.276-5.184l7.324-1.034l0.78-0.111l0.352-0.706l3.301-6.62l3.246,6.646l0.348,0.709
				l0.779,0.116l7.314,1.093l-5.316,5.142l-0.566,0.549l0.131,0.777L407.977,27.562z"/>
		</g>
	</g>
</g>
<g id="icon-design">
	<g>
		<g>
			<path fill="#231F20" d="M446.699,9.875c-5.824,0-10.562,4.738-10.562,10.562S440.875,31,446.699,31s10.562-4.738,10.562-10.562
				S452.523,9.875,446.699,9.875z M446.699,19.25c0.654,0,1.188,0.532,1.188,1.188c0,0.654-0.533,1.188-1.188,1.188
				s-1.188-0.533-1.188-1.188C445.512,19.782,446.045,19.25,446.699,19.25z"/>
			<path fill="#58595B" d="M444.482,20.375c0-1.226,0.992-2.219,2.218-2.219c0.706,0,1.327,0.336,1.733,0.85l6.001-2.723
				c-1.45-2.782-4.356-4.689-7.704-4.689c-2.375,0-4.529,0.959-6.098,2.51v8.443l3.891-1.766
				C444.498,20.649,444.482,20.515,444.482,20.375z"/>
			<g>
				<path fill="#FFFFFF" d="M446.699,10.625c-5.41,0-9.812,4.402-9.812,9.812s4.402,9.812,9.812,9.812s9.812-4.402,9.812-9.812
					S452.109,10.625,446.699,10.625z M446.699,29.125c-4.791,0-8.688-3.898-8.688-8.688c0-4.791,3.896-8.688,8.688-8.688
					s8.688,3.896,8.688,8.688C455.387,25.227,451.49,29.125,446.699,29.125z"/>
				<path fill="#FFFFFF" d="M446.699,17.75c-1.482,0-2.688,1.205-2.688,2.688s1.205,2.688,2.688,2.688s2.688-1.205,2.688-2.688
					S448.182,17.75,446.699,17.75z M446.699,22.375c-1.068,0-1.938-0.869-1.938-1.938s0.869-1.938,1.938-1.938
					s1.938,0.869,1.938,1.938S447.768,22.375,446.699,22.375z"/>
			</g>
		</g>
		<g>
			<g>
				<path fill="#231F20" d="M446.246,29.344H424.73V0.906h14.024l7.491,8.139V29.344z"/>
			</g>
			<polygon fill="#58595B" points="428.965,6.656 441.762,6.65 441.83,7.166 428.976,13 			"/>
			<rect x="428.791" y="6.494" fill="none" stroke="#FFFFFF" stroke-miterlimit="10" width="13.305" height="8.15"/>
			<polygon fill="#231F20" points="437.168,3.042 437.168,10.504 444.539,10.504 			"/>
			<path fill="#FFFFFF" d="M438.426,1.656H425.48v26.938h20.016V9.338L438.426,1.656z M444.371,27.469h-17.766V2.781h11.314v6.967
				h6.426l0.025,0.027V27.469z"/>
		</g>
		<g>
			<g>
				<path fill="#231F20" d="M435.172,31h-18V21h18V31z"/>
			</g>
			<polygon fill="#58595B" points="418.117,28.836 418.078,21.914 433.371,21.912 			"/>
			<path fill="#FFFFFF" d="M417.887,21.75v8.5h16.5v-8.5H417.887z M432.932,22.125l-6.856,3.068l-6.827-3.068H432.932z
				 M418.262,29.875v-7.408l7.813,3.566l7.937-3.613v7.455H418.262z"/>
		</g>
	</g>
</g>
<g id="icon-website">
	<g>
		<g>
			<path fill="#231F20" d="M497.065,1.125H467.69c-1.034,0-1.875,0.841-1.875,1.875v20.875c0,1.033,0.841,1.875,1.875,1.875h7.907
				c0.468,1.26-0.591,3.035-0.604,3.055l-0.345,0.57h15.591l-0.2-0.512c-0.219-0.559-0.629-2.029-0.393-3.113h7.418
				c1.033,0,1.875-0.842,1.875-1.875V3C498.94,1.966,498.099,1.125,497.065,1.125z"/>
			<polygon fill="#58595B" points="468.403,15.113 468.403,3.72 493.507,3.72 			"/>
			<g>
				<path fill="#FFFFFF" d="M497.065,1.875H467.69c-0.62,0-1.125,0.505-1.125,1.125v20.875c0,0.621,0.505,1.125,1.125,1.125h29.375
					c0.621,0,1.125-0.504,1.125-1.125V3C498.19,2.379,497.687,1.875,497.065,1.875z M496.315,23.125H468.44V3.75h27.875V23.125z"/>
				<path fill="#FFFFFF" d="M488.96,25.732h-12.703c0.486,1.129,0.021,2.137-0.325,2.893h13.237
					C488.948,27.889,488.632,26.857,488.96,25.732z"/>
			</g>
		</g>
		<g>
			<path fill="#231F20" d="M507.69,30.625h-24c-1.033,0-1.875-0.842-1.875-1.875V10.875c0-1.034,0.842-1.875,1.875-1.875h24
				c1.034,0,1.875,0.841,1.875,1.875V28.75C509.565,29.783,508.725,30.625,507.69,30.625z"/>
			<polygon fill="#58595B" points="483.603,22.171 483.603,10.778 508.237,10.778 508.238,10.991 			"/>
			<path fill="#FFFFFF" d="M508.815,10.875c0-0.62-0.505-1.125-1.125-1.125h-24c-0.621,0-1.125,0.505-1.125,1.125V28.75
				c0,0.621,0.504,1.125,1.125,1.125h24c0.62,0,1.125-0.504,1.125-1.125V10.875z M507.69,28.75h-24V10.875h24V28.75z"/>
		</g>
		<g>
			<g>
				<path fill="#231F20" d="M466.44,30.625h-6.125c-1.034,0-1.875-0.842-1.875-1.875V14.5c0-1.033,0.841-1.875,1.875-1.875h6.125
					c1.034,0,1.875,0.842,1.875,1.875v14.25C468.315,29.783,467.475,30.625,466.44,30.625z"/>
			</g>
			<polygon fill="#58595B" points="459.37,22.223 459.37,14.199 459.968,13.596 466.788,13.596 467.329,14.094 467.343,18.605 			
				"/>
			<path fill="#FFFFFF" d="M467.565,14.5c0-0.62-0.505-1.125-1.125-1.125h-6.125c-0.62,0-1.125,0.505-1.125,1.125v14.25
				c0,0.621,0.505,1.125,1.125,1.125h6.125c0.62,0,1.125-0.504,1.125-1.125V14.5z M467.19,28.75c0,0.414-0.336,0.75-0.75,0.75
				h-6.125c-0.414,0-0.75-0.336-0.75-0.75V14.5c0-0.414,0.336-0.75,0.75-0.75h6.125c0.414,0,0.75,0.336,0.75,0.75V28.75z"/>
		</g>
	</g>
</g>
<g id="icon-google">
	<g>
		<path fill="#231F20" d="M535.913,14.313h-11.524v4.04h6.013c-0.328,3.029-2.391,5.438-6.748,5.438
			c-4.324,0-7.827-3.29-7.827-7.613c0-4.323,3.503-7.72,7.827-7.72c2.059,0,3.925,0.854,5.323,2.154l3.211-3.777
			c-2.265-2.03-5.254-3.253-8.534-3.253c-7.067,0-12.795,5.736-12.795,12.802c0,7.067,5.728,12.798,12.795,12.798
			c7.575,0,12.263-5.747,12.278-12.777L535.913,14.313z"/>
		<polygon fill="#221F1F" points="549.383,17.221 549.383,14.223 545.727,14.223 545.727,10.567 542.728,10.567 542.728,14.223 
			539.072,14.223 539.072,17.221 542.728,17.221 542.728,20.878 545.727,20.878 545.727,17.221 		"/>
	</g>
</g>
<g id="icon-time">
	<g>
		<path fill="#231F20" d="M565.684,0.549c-8.605,0-15.581,6.974-15.581,15.579c0,8.605,6.976,15.58,15.581,15.58
			c8.604,0,15.579-6.975,15.579-15.58C581.263,7.523,574.288,0.549,565.684,0.549 M575.696,17.938h-11.824V5.088l1.828-1.966
			l1.794,1.966v9.229h8.202l2.013,1.793L575.696,17.938z"/>
	</g>
</g>
<g id="icon-user">
	<g>
		<path fill="#231F20" d="M602.848,18.669c2.267-2.632,2.311-6.421,2.311-8.316c0-5.682-2.039-9.429-7.721-9.429
			c-5.683,0-7.54,4.153-7.54,9.835c0,1.779,0.14,5.515,2.56,8.221c-7.669,2.143-8.943,5.884-8.943,8.934
			c0,3.677,6.505,3.278,14.529,3.278c8.023,0,14.528,0.398,14.528-3.278C612.571,24.764,611.23,20.634,602.848,18.669"/>
	</g>
</g>
<g id="icon-category">
	<g>
		<path fill="#231F20" d="M619.32,10.862V7.838h9.073V6.18c0-1.079-0.297-2.374-1.376-2.374h-11.153
			c-1.079,0-1.584,1.295-1.584,2.374v19.491c0,1.079,0.505,2.329,1.584,2.329h27.825c1.079,0,1.841-1.25,1.841-2.329V13.412
			c0-1.126-0.927-2.549-2.331-2.549H619.32z"/>
	</g>
</g>
<g id="icon-comments">
	<g>
		<path fill="#231F20" d="M669.312,0h-14.197c-4.8,0-8.689,3.889-8.689,8.689v5.386c0,4.8,3.89,8.688,8.689,8.688h8.178l-1.18,8.547
			l8.13-8.639c4.356-0.471,7.758-4.117,7.758-8.597V8.689C678,3.889,674.111,0,669.312,0"/>
	</g>
</g>
<g id="Guides">
</g>
</svg>
