<?xml version="1.0" encoding="utf-8"?>
<!-- Generator: Adobe Illustrator 16.0.4, SVG Export Plug-In . SVG Version: 6.00 Build 0)  -->
<!DOCTYPE svg PUBLIC "-//W3C//DTD SVG 1.1//EN" "http://www.w3.org/Graphics/SVG/1.1/DTD/svg11.dtd">
<svg version="1.1" id="SVGs" xmlns="http://www.w3.org/2000/svg" xmlns:xlink="http://www.w3.org/1999/xlink" x="0px" y="0px"
	 width="32px" height="32px" viewBox="0 0 32 32" enable-background="new 0 0 32 32" xml:space="preserve">
<g id="google">
	<g>
		<polygon fill="#231F20" points="27,8 27,2 24,2 24,8 19,8 19,10 24,10 24,16 27,16 27,10 32,10 32,8 		"/>
		<path fill="#231F20" d="M12.637,15.65c0-1.471,3.848-2.022,3.848-6.942c0-1.545-0.437-3.331-1.744-4.242
			c0.87-0.125,2.896-0.122,2.896-1.386c0-0.476-0.476-0.437-0.873-0.437c-2.462,0-7.184-0.236-9.686,0.551
			c-2.98,0.993-5.04,3.363-5.04,6.584c0,3.73,2.58,6.221,6.27,6.221h0.239c0,1-0.025,1.608,0.912,2.544
			c-3.809,0-8.968,1.28-8.968,5.96c0,4.445,4.402,6.025,8.13,6.025c4.372,0,9.012-2.117,9.012-7.117
			C17.635,18.926,12.637,16.958,12.637,15.65z M6.009,7.76c0-1.628,0.675-3.376,2.542-3.376c2.495,0,3.728,3.376,3.728,5.44
			c0,1.627-0.638,3.376-2.542,3.376C7.241,13.2,6.009,9.824,6.009,7.76z M9.179,27.412c-2.143,0-4.918-1.115-4.918-3.654
			c0-2.738,2.936-3.814,5.273-3.814c2.106,0,4.926,1.076,4.926,3.574C14.46,26.059,11.361,27.412,9.179,27.412z"/>
	</g>
</g>
</svg>
