<?xml version="1.0" encoding="utf-8"?>
<!-- Generator: Adobe Illustrator 16.0.4, SVG Export Plug-In . SVG Version: 6.00 Build 0)  -->
<!DOCTYPE svg PUBLIC "-//W3C//DTD SVG 1.1//EN" "http://www.w3.org/Graphics/SVG/1.1/DTD/svg11.dtd">
<svg version="1.1" id="SVGs" xmlns="http://www.w3.org/2000/svg" xmlns:xlink="http://www.w3.org/1999/xlink" x="0px" y="0px"
	 width="32px" height="32px" viewBox="0 0 32 32" enable-background="new 0 0 32 32" xml:space="preserve">
<path id="linkedin" fill="#221F1F" d="M7.019,31.938H0.221V9.678h6.798V31.938z M3.567,6.97c-2.126,0-3.505-1.542-3.505-3.454
	c0-1.965,1.438-3.454,3.613-3.454c2.178,0,3.558,1.489,3.558,3.454C7.288,5.429,5.854,6.97,3.567,6.97z M31.938,31.938h-6.851
	V19.614c0-2.872-0.956-4.833-3.45-4.833c-1.863,0-2.982,1.328-3.511,2.603c-0.159,0.475-0.216,1.113-0.216,1.75v12.803h-6.798
	v-15.14c0-2.762-0.105-5.1-0.163-7.115h5.899l0.322,3.132h0.105c0.903-1.487,3.133-3.615,6.794-3.615
	c4.463,0,7.868,3.033,7.868,9.618V31.938z"/>
</svg>
