<?xml version="1.0" encoding="utf-8"?>
<!-- Generator: Adobe Illustrator 16.0.4, SVG Export Plug-In . SVG Version: 6.00 Build 0)  -->
<!DOCTYPE svg PUBLIC "-//W3C//DTD SVG 1.1//EN" "http://www.w3.org/Graphics/SVG/1.1/DTD/svg11.dtd">
<svg version="1.1" id="SVGs" xmlns="http://www.w3.org/2000/svg" xmlns:xlink="http://www.w3.org/1999/xlink" x="0px" y="0px"
	 width="32px" height="32px" viewBox="0 0 32 32" enable-background="new 0 0 32 32" xml:space="preserve">
<g id="phone">
	<path fill="#231F20" d="M12.928,8.462c0,0-0.094,0.428-0.71,1.191c-0.614,0.761-3.223,2.433-3.223,2.433l9.31,12.801l3.839-3.198
		c0,0,0.623-0.763,1.382-0.146c0.758,0.619,5.669,4.828,5.669,4.828s-0.75,3.431-1.792,4.093c-1.041,0.672-4.695,3.015-11.503-0.715
		C9.088,26.012,3.442,14.911,2.854,9.399C2.705,8.023,2.598,4.411,7.572,0.116c0.525-0.336,3.092,0.229,3.333,1.179
		C11.147,2.244,12.928,8.462,12.928,8.462z"/>
</g>
</svg>
