<?xml version="1.0" encoding="utf-8"?>
<!-- Generator: Adobe Illustrator 16.0.4, SVG Export Plug-In . SVG Version: 6.00 Build 0)  -->
<!DOCTYPE svg PUBLIC "-//W3C//DTD SVG 1.1//EN" "http://www.w3.org/Graphics/SVG/1.1/DTD/svg11.dtd">
<svg version="1.1" id="SVGs" xmlns="http://www.w3.org/2000/svg" xmlns:xlink="http://www.w3.org/1999/xlink" x="0px" y="0px"
	 width="32px" height="32px" viewBox="0 0 32 32" enable-background="new 0 0 32 32" xml:space="preserve">
<path id="RSS" fill="#231F20" d="M4.247,31.962C1.901,31.962,0,30.056,0,27.718c0-2.351,1.901-4.253,4.247-4.253
	c2.346,0,4.248,1.902,4.248,4.253C8.495,30.062,6.593,31.962,4.247,31.962z M14.906,31.995c0-4.02-1.548-7.779-4.368-10.604
	C7.725,18.558,3.983,17,0.003,17v-6.128c11.6,0,21.039,9.474,21.039,21.123H14.906z M25.741,32
	c0-14.265-11.543-25.868-25.727-25.868V0c17.569,0,31.854,14.35,31.854,32H25.741z"/>
</svg>
