<?xml version="1.0" encoding="utf-8"?>
<!-- Generator: Adobe Illustrator 16.0.4, SVG Export Plug-In . SVG Version: 6.00 Build 0)  -->
<!DOCTYPE svg PUBLIC "-//W3C//DTD SVG 1.1//EN" "http://www.w3.org/Graphics/SVG/1.1/DTD/svg11.dtd">
<svg version="1.1" id="SVGs" xmlns="http://www.w3.org/2000/svg" xmlns:xlink="http://www.w3.org/1999/xlink" x="0px" y="0px"
	 width="32px" height="32px" viewBox="0 0 32 32" enable-background="new 0 0 32 32" xml:space="preserve">
<g id="search">
	<path fill="#221F1F" d="M32.002,28.641l-3.359,3.361l-8.127-8.13c-2.113,1.441-4.675,2.304-7.428,2.304
		C5.855,26.176,0,20.322,0,13.088C0,5.855,5.855,0,13.088,0c7.233,0,13.088,5.855,13.088,13.088c0,2.752-0.862,5.312-2.301,7.392
		L32.002,28.641z M13.09,4.35c-4.832,0-8.736,3.903-8.736,8.735c0,4.803,3.904,8.704,8.736,8.704c4.8,0,8.708-3.903,8.708-8.704
		C21.798,8.253,17.89,4.35,13.09,4.35z"/>
</g>
</svg>
