<?xml version="1.0" encoding="utf-8"?>
<!-- Generator: Adobe Illustrator 16.0.4, SVG Export Plug-In . SVG Version: 6.00 Build 0)  -->
<!DOCTYPE svg PUBLIC "-//W3C//DTD SVG 1.1//EN" "http://www.w3.org/Graphics/SVG/1.1/DTD/svg11.dtd">
<svg version="1.1" id="SVGs" xmlns="http://www.w3.org/2000/svg" xmlns:xlink="http://www.w3.org/1999/xlink" x="0px" y="0px"
	 width="32px" height="32px" viewBox="0 0 32 32" enable-background="new 0 0 32 32" xml:space="preserve">
<g id="twitter_2_">
	<path fill="#231F20" d="M28.764,9.456c0.014,0.281,0.018,0.567,0.018,0.85c-0.002,8.701-6.622,18.735-18.735,18.735
		c-3.717,0-7.18-1.092-10.093-2.96c0.515,0.064,1.041,0.096,1.57,0.096c3.089,0,5.924-1.058,8.177-2.82
		c-2.882-0.051-5.312-1.958-6.148-4.57c0.4,0.078,0.814,0.119,1.236,0.119c0.601,0,1.182-0.078,1.734-0.231
		c-3.011-0.604-5.281-3.27-5.281-6.46c0-0.028,0-0.056,0.002-0.081c0.889,0.497,1.906,0.79,2.983,0.822
		c-1.769-1.18-2.933-3.194-2.933-5.48c0-1.208,0.326-2.339,0.891-3.308c3.249,3.981,8.101,6.606,13.572,6.879
		c-0.111-0.479-0.167-0.986-0.167-1.503c0-3.634,2.949-6.582,6.585-6.582c1.895,0,3.604,0.798,4.811,2.081
		c1.492-0.295,2.899-0.844,4.177-1.598c-0.494,1.537-1.537,2.827-2.896,3.644c1.33-0.159,2.601-0.515,3.781-1.039
		C31.166,7.369,30.05,8.527,28.764,9.456z"/>
</g>
</svg>
