<?xml version="1.0" encoding="utf-8"?>
<!-- Generator: Adobe Illustrator 16.0.4, SVG Export Plug-In . SVG Version: 6.00 Build 0)  -->
<!DOCTYPE svg PUBLIC "-//W3C//DTD SVG 1.1//EN" "http://www.w3.org/Graphics/SVG/1.1/DTD/svg11.dtd">
<svg version="1.1" id="SVGs" xmlns="http://www.w3.org/2000/svg" xmlns:xlink="http://www.w3.org/1999/xlink" x="0px" y="0px"
	 width="32px" height="32px" viewBox="0 0 32 32" enable-background="new 0 0 32 32" xml:space="preserve">
<path id="Vimeo" fill="#231F20" d="M31.72,7.522c-1.155,5.929-10.068,22.011-17.674,22.011c-3.699,0-4.936-6.365-5.649-9.158
	c-0.436-1.705-0.875-3.459-1.472-5.172c-0.321-0.914-0.556-1.913-0.914-2.785c-0.321-0.757-0.761-1.591-1.714-1.591
	c-0.911,0-1.75,0.554-2.664,0.554c-1.074,0-1.032-0.716-1.633-1.312V9.871c2.505-1.949,6.767-6.565,10.029-6.565
	c5.295,0,3.304,12.694,6.329,15.841c0.358,0.396,0.834,0.752,1.432,0.752c2.147,0,4.501-5.848,4.501-7.76
	c0-2.625-1.871-2.707-3.983-2.547c1.233-3.742,5.016-7.125,9.07-7.125c2.478,0,4.462,0.954,4.462,3.702
	C31.833,6.605,31.8,7.044,31.72,7.522z"/>
</svg>
