<?xml version="1.0" encoding="utf-8"?>
<!-- Generator: Adobe Illustrator 16.0.4, SVG Export Plug-In . SVG Version: 6.00 Build 0)  -->
<!DOCTYPE svg PUBLIC "-//W3C//DTD SVG 1.1//EN" "http://www.w3.org/Graphics/SVG/1.1/DTD/svg11.dtd">
<svg version="1.1" id="SVGs" xmlns="http://www.w3.org/2000/svg" xmlns:xlink="http://www.w3.org/1999/xlink" x="0px" y="0px"
	 width="32px" height="32px" viewBox="0 0 32 32" enable-background="new 0 0 32 32" xml:space="preserve">
<path fill="#231F20" d="M31.736,10.564c-0.195-2.554-2.18-4.057-4.617-4.167c-3.671-0.185-7.428-0.185-11.144-0.185
	c-3.71,0-7.494,0-11.169,0.185C2.366,6.512,0.375,8.01,0.194,10.564C0.083,12.356,0,14.198,0,16.003c0,1.8,0.113,3.635,0.224,5.439
	c0.185,2.542,2.175,4.04,4.613,4.155c3.675,0.19,7.429,0.19,11.139,0.19c3.716,0,7.422,0,11.144-0.19
	c2.438-0.115,4.422-1.613,4.617-4.155c0.114-1.804,0.216-3.639,0.216-5.439C31.952,14.198,31.847,12.356,31.736,10.564z M12,20.261
	v-7.714l8.742,3.857L12,20.261z"/>
</svg>
